<?xml version="1.0" standalone="no"?><!DOCTYPE svg PUBLIC "-//W3C//DTD SVG 1.1//EN" "http://www.w3.org/Graphics/SVG/1.1/DTD/svg11.dtd"><svg class="icon" width="256px" height="256.00px" viewBox="0 0 1024 1024" version="1.1" xmlns="http://www.w3.org/2000/svg"><path fill="#d4237a" d="M398.917502 625.542986c-10.154267 8.842389-21.290909 17.115819-33.401738 24.804942a620.500133 620.500133 0 0 0-34.874275 23.822568c-23.254633 15.717983-41.590234 34.221406-55.012941 55.504129-13.430894 21.289885-20.307512 46.171576-20.629853 74.66042h234.787374v-50.101072h-167.494759c2.287089-7.528464 6.54609-14.650675 12.770862-21.366633 6.216585-6.707772 13.507642-13.178137 21.856797-19.401886 8.351202-6.216585 17.438161-12.440333 27.2619-18.665105 9.82374-6.216585 19.647479-12.770861 29.471219-19.647479a368.43935 368.43935 0 0 0 28.488844-22.103414c9.163707-7.860015 17.353227-16.454764 24.559349-25.787316 7.198959-9.332553 12.932544-19.563568 17.192568-30.699186 4.250814-11.128455 6.384407-23.576975 6.384407-37.33021 0-11.128455-1.803066-22.839171-5.402033-35.118845-3.607154-12.279674-9.746992-23.653723-18.419512-34.137495-8.679683-10.475586-20.061918-19.156292-34.137495-26.03291-14.083763-6.876618-31.604812-10.314926-52.557006-10.314926-19.325138 0-36.271088 3.361561-50.837852 10.069333-14.57495 6.714935-26.938536 15.963577-37.084617 27.752064-10.154267 11.788487-17.766642 25.787316-22.840194 41.995463-5.080715 16.210193-7.612375 33.816177-7.612375 52.803623h55.995315c0.322341-12.110829 1.550309-23.408129 3.683903-33.891901 2.12643-10.475586 5.403057-19.562545 9.824762-27.260877 4.420683-7.690146 10.314926-13.753235 17.682732-18.173918 7.366781-4.420683 16.615423-6.631024 27.752064-6.631025 12.110829 0 21.934568 2.048659 29.471218 6.139838 7.528464 4.098341 13.422707 9.17087 17.682731 15.226796 4.250814 6.063089 7.122211 12.609179 8.594749 19.647479 1.473561 7.045463 2.210341 13.676487 2.210341 19.892049-0.329505 13.430894-3.768837 25.297153-10.314926 35.612079-6.556323 10.313903-14.905478 19.892049-25.051559 28.733415zM550.44766 758.90025c9.332553 16.210193 22.104437 28.980032 38.312585 38.312584s36.915771 13.998829 62.135152 13.998828c17.023722 0 32.580023-2.947122 46.663786-8.841365 14.075577-5.894244 26.194592-14.160511 36.347836-24.804942 10.146081-10.637268 17.929348-23.085788 23.331381-37.329187 5.403057-14.244422 8.104585-29.716812 8.104585-46.417169 0-16.370853-2.454912-31.597649-7.366781-45.681412-4.912893-14.075577-12.035104-26.278503-21.366633-36.59343-9.332553-10.314926-20.714787-18.419512-34.137495-24.313755-13.430894-5.894244-28.65769-8.841366-45.680389-8.841366-15.396665 0-29.716812 3.360538-42.97886 10.069333-13.263072 6.714935-23.661909 16.945951-31.190373 30.699186l-0.982374-0.982374c0.652869-7.528464 1.388627-15.633049 2.210341-24.314778 0.813528-8.67252 2.210341-17.437138 4.17509-26.278504s4.497431-17.268292 7.612375-25.296129c3.108804-8.020674 7.198959-15.141862 12.279674-21.366633 5.073552-6.216585 11.2973-11.213389 18.665105-14.981203 7.367805-3.76065 16.125259-5.64865 26.278503-5.64865 14.735609 0 26.440186 4.343935 35.119869 13.016455 8.67252 8.679683 13.668301 20.061918 14.981203 34.137494h55.996338c-0.661056-14.075577-3.929496-26.846438-9.824763-38.312584-5.894244-11.458983-13.507642-21.281699-22.839171-29.471218-9.332553-8.181333-20.061918-14.566764-32.172747-19.156292-12.119015-4.582365-25.049512-6.876618-38.803771-6.876618-24.237007 0-44.621267 5.403057-61.152778 16.20917-16.539698 10.806113-29.885658 24.804942-40.031739 41.996487-10.154267 17.191544-17.437138 36.270065-21.85782 57.223282-4.419659 20.959358-6.630001 41.750893-6.630001 62.380746 0 25.219381 1.795902 48.712445 5.402034 70.485331 3.597945 21.783119 10.06831 40.770566 19.399838 56.978713z m40.523949-93.079932c2.617617-8.510838 6.54609-15.963577 11.788488-22.349008 5.234211-6.385431 11.704576-11.45796 19.401885-15.226796 7.691169-3.76065 16.616446-5.649674 26.76969-5.649673 10.146081 0 18.98847 1.964748 26.524097 5.895267 7.528464 3.929496 13.831007 9.086959 18.910699 15.471366 5.072529 6.385431 8.841366 13.83817 11.2973 22.350031 2.454912 8.518001 3.683902 17.36039 3.683902 26.524096 0 9.171893-1.227967 18.09717-3.683902 26.769691-2.455935 8.679683-6.224772 16.293081-11.2973 22.839171-5.080715 6.554276-11.382235 11.873422-18.910699 15.9646-7.535627 4.098341-16.378016 6.139837-26.524097 6.139837-10.153244 0-19.079544-1.964748-26.76969-5.894244-7.697309-3.930519-14.167674-9.248641-19.401885-15.9646-5.241374-6.707772-9.17087-14.32117-11.788488-22.839171-2.62478-8.511861-3.929496-17.513886-3.929496-27.015284 0-9.492188 1.303692-18.495236 3.929496-27.015283zM838.026378 126.409015h-59.445904V79.237669c0-6.723122-5.64251-12.254092-12.603039-12.254092h-34.219359c-7.118118 0-12.602016 5.485945-12.602016 12.254092v47.171346h-415.973969V79.237669c0-6.723122-5.64251-12.254092-12.602016-12.254092h-34.220383c-7.118118 0-12.602016 5.485945-12.602016 12.254092v47.171346H184.311773c-65.738213 0-118.828362 53.168943-118.828363 118.755707v594.434478c0 65.448618 53.200666 118.755708 118.828363 118.755707h653.715628c65.738213 0 118.828362-53.168943 118.828363-118.755707V245.164722c-0.001023-65.448618-53.202713-118.755708-118.829386-118.755707z m59.402925 713.191208c0 32.806173-26.523073 59.331293-59.402925 59.331293H184.310749c-32.757055 0-59.402925-26.65201-59.402925-59.331293V364.107695h772.521479v475.492528z m0-534.916942H124.907824v-59.518559c0-32.806173 26.523073-59.331293 59.402925-59.331293h59.445904v47.171346c0 6.723122 5.64251 12.254092 12.602016 12.254091h34.220382c7.118118 0 12.602016-5.485945 12.602016-12.254091v-47.171346h415.972947v47.171346c0 6.723122 5.64251 12.254092 12.602015 12.254091h34.21936c7.119141 0 12.603039-5.485945 12.603039-12.254091v-47.171346h59.445904c32.757055 0 59.402925 26.65201 59.402924 59.331293v59.518559z" /></svg>