<?xml version="1.0" standalone="no"?><!DOCTYPE svg PUBLIC "-//W3C//DTD SVG 1.1//EN" "http://www.w3.org/Graphics/SVG/1.1/DTD/svg11.dtd"><svg class="icon" width="256px" height="256.00px" viewBox="0 0 1024 1024" version="1.1" xmlns="http://www.w3.org/2000/svg"><path fill="#d4237a" d="M398.917502 625.542986c-10.154267 8.842389-21.290909 17.115819-33.401738 24.804942a620.500133 620.500133 0 0 0-34.874275 23.822568c-23.254633 15.717983-41.590234 34.221406-55.012941 55.504129-13.430894 21.289885-20.307512 46.171576-20.629853 74.66042h234.787374v-50.101072h-167.494759c2.287089-7.528464 6.54609-14.650675 12.770862-21.366633 6.216585-6.707772 13.507642-13.178137 21.856797-19.401886 8.351202-6.216585 17.438161-12.440333 27.2619-18.665105 9.82374-6.216585 19.647479-12.770861 29.471219-19.647479a368.43935 368.43935 0 0 0 28.488844-22.103414c9.163707-7.860015 17.353227-16.454764 24.559349-25.787316 7.198959-9.332553 12.932544-19.563568 17.192568-30.699186 4.250814-11.128455 6.384407-23.576975 6.384407-37.33021 0-11.128455-1.803066-22.839171-5.402033-35.118845-3.607154-12.279674-9.746992-23.653723-18.419512-34.137495-8.679683-10.475586-20.061918-19.156292-34.137495-26.03291-14.083763-6.876618-31.604812-10.314926-52.557006-10.314926-19.325138 0-36.271088 3.361561-50.837852 10.069333-14.57495 6.714935-26.938536 15.963577-37.084617 27.752064-10.154267 11.788487-17.766642 25.787316-22.840194 41.995463-5.080715 16.210193-7.612375 33.816177-7.612375 52.803623h55.995315c0.322341-12.110829 1.550309-23.408129 3.683903-33.891901 2.12643-10.475586 5.403057-19.562545 9.824762-27.260877 4.420683-7.690146 10.314926-13.753235 17.682732-18.173918 7.366781-4.420683 16.615423-6.631024 27.752064-6.631025 12.110829 0 21.934568 2.048659 29.471218 6.139838 7.528464 4.098341 13.422707 9.17087 17.682731 15.226796 4.250814 6.063089 7.122211 12.609179 8.594749 19.647479 1.473561 7.045463 2.210341 13.676487 2.210341 19.892049-0.329505 13.430894-3.768837 25.297153-10.314926 35.612079-6.556323 10.313903-14.905478 19.892049-25.051559 28.733415zM555.605124 655.259798c9.494235 9.993608 20.875446 17.767666 34.137495 23.332404 13.262048 5.570879 28.074406 8.349155 44.452421 8.349156 15.71696 0 30.124088-3.515057 43.22343-10.559497 13.093203-7.0383 23.408129-17.268292 30.94478-30.699186l0.982374 0.982374c-0.982374 11.466146-2.379187 23.991414-4.17509 37.575804-1.804089 13.592576-5.157463 26.363438-10.069333 38.312584-4.91187 11.957333-11.873422 21.941732-20.875446 29.962405-9.010211 8.027837-21.043269 12.034081-36.101219 12.034081-14.735609 0-26.448372-4.335748-35.119869-13.016455-8.679683-8.673543-13.676487-20.054755-14.981203-34.137494h-55.996338c0.652869 14.083763 3.930519 26.853601 9.824762 38.312584 5.894244 11.465123 13.507642 21.289885 22.840195 29.471218 9.331529 8.188496 20.053732 14.573927 32.171723 19.156292 12.110829 4.582365 25.050536 6.876618 38.803771 6.876618 24.229844 0 44.614104-5.402033 61.152779-16.20917 16.531512-10.806113 29.878494-24.804942 40.031738-41.996487 10.146081-17.191544 17.437138-36.263925 21.857821-57.223282 4.420683-20.953218 6.630001-41.750893 6.630001-62.380746 0-24.88169-1.803066-48.296983-5.402034-70.240761-3.607154-21.934568-9.908674-41.013089-18.910698-57.222259-9.010211-16.20917-21.366633-28.980032-37.084617-38.312584-15.71696-9.332553-35.694967-13.998829-59.924811-13.998829-18.665105 0-35.365462 2.947122-50.101072 8.841365-14.735609 5.894244-27.184129 14.167674-37.33021 24.804943-10.153244 10.644431-17.850553 23.085788-23.085787 37.33021-5.241374 14.243399-7.858992 29.716812-7.858992 46.417169 0 17.681708 2.617617 33.646308 7.858992 47.89073 5.236258 14.244422 12.604062 26.362414 22.104437 36.346813z m29.716812-111.25385c2.455935-8.510838 6.139837-16.040325 11.05273-22.594601 4.91187-6.54609 11.128455-11.704576 18.664082-15.47239 7.528464-3.76065 16.370853-5.64865 26.524096-5.64865 10.476609 0 19.647479 1.964748 27.507494 5.894244 7.858992 3.929496 14.320147 9.086959 19.401886 15.47239 5.072529 6.385431 8.918114 13.837146 11.54187 22.349007 2.617617 8.519024 3.929496 17.36039 3.929496 26.524097 0 9.501398-1.311879 18.588357-3.929496 27.2619-2.623757 8.679683-6.469342 16.378016-11.54187 23.085788-5.081739 6.714935-11.542894 12.034081-19.401886 15.963577-7.860015 3.930519-17.030885 5.895267-27.507494 5.895267-10.153244 0-18.99461-2.041496-26.524096-6.139838-7.535627-4.091178-13.752212-9.4093-18.664082-15.9646-4.912893-6.54609-8.595772-14.159488-11.05273-22.839171-2.454912-8.673543-3.683902-17.759479-3.683903-27.2619 0.001023-9.16473 1.228991-18.005073 3.683903-26.52512zM838.026378 126.409015h-59.445904V79.237669c0-6.723122-5.64251-12.254092-12.603039-12.254092h-34.219359c-7.118118 0-12.602016 5.485945-12.602016 12.254092v47.171346h-415.973969V79.237669c0-6.723122-5.64251-12.254092-12.602016-12.254092h-34.220383c-7.118118 0-12.602016 5.485945-12.602016 12.254092v47.171346H184.311773c-65.738213 0-118.828362 53.168943-118.828363 118.755707v594.434478c0 65.448618 53.200666 118.755708 118.828363 118.755707h653.715628c65.738213 0 118.828362-53.168943 118.828363-118.755707V245.164722c-0.001023-65.448618-53.202713-118.755708-118.829386-118.755707z m59.402925 713.191208c0 32.806173-26.523073 59.331293-59.402925 59.331293H184.310749c-32.757055 0-59.402925-26.65201-59.402925-59.331293V364.107695h772.521479v475.492528z m0-534.916942H124.907824v-59.518559c0-32.806173 26.523073-59.331293 59.402925-59.331293h59.445904v47.171346c0 6.723122 5.64251 12.254092 12.602016 12.254091h34.220382c7.118118 0 12.602016-5.485945 12.602016-12.254091v-47.171346h415.972947v47.171346c0 6.723122 5.64251 12.254092 12.602015 12.254091h34.21936c7.119141 0 12.603039-5.485945 12.603039-12.254091v-47.171346h59.445904c32.757055 0 59.402925 26.65201 59.402924 59.331293v59.518559z" /></svg>