<?xml version="1.0" standalone="no"?><!DOCTYPE svg PUBLIC "-//W3C//DTD SVG 1.1//EN" "http://www.w3.org/Graphics/SVG/1.1/DTD/svg11.dtd"><svg class="icon" width="256px" height="256.00px" viewBox="0 0 1024 1024" version="1.1" xmlns="http://www.w3.org/2000/svg"><path fill="#d4237a" d="M422.712441 662.423965c9.493212 9.992585 20.875446 17.766642 34.137495 23.331381 13.262048 5.571902 28.074406 8.350179 44.452421 8.350178 15.71696 0 30.124088-3.515057 43.223431-10.56052 13.093203-7.037277 23.408129-17.268292 30.944779-30.699185l0.982374 0.982373c-0.982374 11.466146-2.379187 23.991414-4.175089 37.576827-1.804089 13.591553-5.157463 26.362414-10.069333 38.311561-4.91187 11.957333-11.873422 21.941732-20.875447 29.962406-9.010211 8.027837-21.043269 12.034081-36.101219 12.034081-14.735609 0-26.447349-4.335748-35.119869-13.016455-8.679683-8.673543-13.676487-20.054755-14.981203-34.137495h-55.995315c0.651846 14.083763 3.929496 26.853601 9.82374 38.312584 5.894244 11.465123 13.507642 21.289885 22.840194 29.471219 9.332553 8.188496 20.054755 14.573927 32.172747 19.156292 12.110829 4.582365 25.050536 6.876618 38.803771 6.876617 24.229844 0 44.614104-5.402033 61.152778-16.20917 16.531512-10.806113 29.878494-24.804942 40.031739-41.996486 10.146081-17.191544 17.437138-36.263925 21.85782-57.223283 4.420683-20.952194 6.630001-41.750893 6.630001-62.380746 0-24.880667-1.803066-48.296983-5.402033-70.239737-3.607154-21.935592-9.908674-41.014112-18.910699-57.223283-9.010211-16.20917-21.366633-28.980032-37.084617-38.312584-15.71696-9.332553-35.694967-13.998829-59.92481-13.998829-18.665105 0-35.365462 2.947122-50.101072 8.841366-14.735609 5.894244-27.184129 14.167674-37.33021 24.804942-10.153244 10.644431-17.851577 23.085788-23.085788 37.33021-5.242398 14.244422-7.858992 29.716812-7.858992 46.416146 0 17.682731 2.617617 33.646308 7.858992 47.89073 5.235235 14.246469 12.602016 26.363438 22.103414 36.34886z m29.716812-111.25385c2.455935-8.510838 6.139837-16.041348 11.051707-22.595625 4.91187-6.54609 11.128455-11.704576 18.665105-15.472389 7.528464-3.76065 16.370853-5.64865 26.523073-5.64865 10.476609 0 19.647479 1.964748 27.507494 5.894243 7.858992 3.929496 14.320147 9.086959 19.401886 15.47239 5.072529 6.385431 8.918114 13.83817 11.54187 22.350031 2.617617 8.518001 3.929496 17.36039 3.929496 26.524096 0 9.501398-1.311879 18.588357-3.929496 27.260877-2.623757 8.679683-6.469342 16.378016-11.54187 23.086812-5.081739 6.714935-11.542894 12.034081-19.401886 15.963576-7.860015 3.929496-17.030885 5.894244-27.507494 5.894244-10.153244 0-18.99461-2.041496-26.523073-6.139837-7.53665-4.090155-13.753235-9.4093-18.665105-15.963577-4.91187-6.54609-8.595772-14.160511-11.051707-22.840194-2.455935-8.67252-3.683902-17.758456-3.683902-27.260877 0-9.16473 1.228991-18.006096 3.683902-26.52512zM838.026378 126.409015h-59.445904V79.237669c0-6.723122-5.64251-12.254092-12.603039-12.254092h-34.219359c-7.118118 0-12.602016 5.485945-12.602016 12.254092v47.171346h-415.973969V79.237669c0-6.723122-5.64251-12.254092-12.602016-12.254092h-34.220383c-7.118118 0-12.602016 5.485945-12.602016 12.254092v47.171346H184.311773c-65.738213 0-118.828362 53.168943-118.828363 118.755707v594.434478c0 65.448618 53.200666 118.755708 118.828363 118.755707h653.715628c65.738213 0 118.828362-53.168943 118.828363-118.755707V245.164722c-0.001023-65.448618-53.202713-118.755708-118.829386-118.755707z m59.402925 713.191208c0 32.806173-26.523073 59.331293-59.402925 59.331293H184.310749c-32.757055 0-59.402925-26.65201-59.402925-59.331293V364.107695h772.521479v475.492528z m0-534.916942H124.907824v-59.518559c0-32.806173 26.523073-59.331293 59.402925-59.331293h59.445904v47.171346c0 6.723122 5.64251 12.254092 12.602016 12.254091h34.220382c7.118118 0 12.602016-5.485945 12.602016-12.254091v-47.171346h415.972947v47.171346c0 6.723122 5.64251 12.254092 12.602015 12.254091h34.21936c7.119141 0 12.603039-5.485945 12.603039-12.254091v-47.171346h59.445904c32.757055 0 59.402925 26.65201 59.402924 59.331293v59.518559z" /></svg>