<?xml version="1.0" standalone="no"?><!DOCTYPE svg PUBLIC "-//W3C//DTD SVG 1.1//EN" "http://www.w3.org/Graphics/SVG/1.1/DTD/svg11.dtd"><svg class="icon" width="256px" height="256.00px" viewBox="0 0 1024 1024" version="1.1" xmlns="http://www.w3.org/2000/svg"><path fill="#d4237a" d="M251.069199 691.362041c0.321318 18.013259 3.107781 34.384112 8.350179 49.118697 5.233188 14.735609 12.847609 27.345812 22.839171 37.821397 9.985422 10.483772 22.425755 18.588357 37.33021 24.314779 14.897292 5.725398 32.334429 8.594749 52.311413 8.594748 16.369829 0 31.927153-2.454912 46.662762-7.367804 14.735609-4.91187 27.668153-11.865235 38.804795-20.874423 11.128455-9.003048 19.96982-19.96982 26.524096-32.909528 6.54609-12.932544 9.82374-27.583219 9.82374-43.961234 0-22.265096-5.486968-41.174772-16.454764-56.732096-10.974959-15.548114-26.278503-25.296129-45.925982-29.225625v-0.982374c16.700357-5.895267 28.980032-15.303544 36.839023-28.244274 7.858992-12.93152 11.788487-28.074406 11.788488-45.433772 0-15.057951-3.115967-28.40391-9.33153-40.031738-6.224772-11.619642-14.490016-21.197788-24.804942-28.734438-10.314926-7.528464-21.941732-13.262048-34.874275-17.191544-12.94073-3.929496-26.116821-5.894244-39.540552-5.894244-17.361413 0-32.910551 2.947122-46.663786 8.841365-13.753235 5.894244-25.464975 14.083763-35.119868 24.559349-9.662057 10.483772-17.275455 22.840194-22.839171 37.084617-5.571902 14.244422-8.680706 29.716812-9.332553 46.416146h55.995315c-0.329505-8.841366 0.652869-17.437138 2.947122-25.787317 2.287089-8.349155 5.810333-15.878642 10.56052-22.593577 4.743024-6.707772 10.722202-12.034081 17.928325-15.963577 7.198959-3.929496 15.717983-5.894244 25.541722-5.894244 15.717983 0 28.565593 4.420683 38.559201 13.262049 9.984399 8.841366 14.981203 20.629853 14.981203 35.365462 0 10.483772-2.210341 19.326161-6.630001 26.524097-4.420683 7.207146-10.238179 12.854772-17.437138 16.946974-7.207146 4.098341-15.395642 6.961552-24.559348 8.594748a129.287575 129.287575 0 0 1-27.507494 1.965772v41.750893c11.129478-0.322341 22.019503 0 32.664957 0.982373 10.637268 0.982374 20.215414 3.52222 28.734438 7.612375 8.510838 4.098341 15.387455 10.070356 20.62883 17.929348 5.234211 7.858992 7.860015 18.503423 7.860015 31.927154 0 19.647479-6.308683 34.797527-18.910699 45.433771-12.609179 10.645454-28.243251 15.9646-46.908356 15.9646-21.941732 0-38.396495-6.953366-49.364291-20.875446-10.974959-13.914918-16.132422-31.352055-15.47239-52.311413h-55.998385zM548.975123 751.042281c8.67252 17.522072 20.790512 31.927153 36.347836 43.224454 15.549138 11.2973 35.612079 16.945951 60.171428 16.945951s44.61308-5.64865 60.170404-16.945951c15.548114-11.2973 27.66713-25.702382 36.347836-43.224454 8.673543-17.513886 14.566764-36.754089 17.682732-57.714469 3.107781-20.952194 4.666276-41.258683 4.666276-60.907185s-1.557472-39.947827-4.666276-60.908208c-3.115967-20.952194-9.010211-40.192398-17.682732-57.713447-8.679683-17.513886-20.798698-31.927153-36.347836-43.224454-15.557324-11.2973-35.611056-16.945951-60.170404-16.94595s-44.621267 5.64865-60.171428 16.94595c-15.556301 11.2973-27.675316 25.710568-36.347836 43.224454-8.679683 17.521049-14.573927 36.762275-17.682731 57.713447-3.115967 20.959358-4.666276 41.259706-4.666277 60.908208s1.550309 39.954991 4.666277 60.907185c3.107781 20.960381 9.002025 40.200584 17.682731 57.714469z m36.592406-169.460529c1.964748-15.878642 5.318122-29.877471 10.069333-41.996487 4.744048-12.109806 11.128455-21.687952 19.157316-28.733415 8.019651-7.0383 18.250666-10.56052 30.699185-10.56052 12.110829 0 22.264073 3.52222 30.453593 10.56052 8.181333 7.045463 14.650675 16.623609 19.401885 28.733415 4.743024 12.119015 8.104585 26.117844 10.069333 41.996487 1.964748 15.886829 2.947122 32.832779 2.947122 50.838875 0 18.013259-0.982374 35.043121-2.947122 51.083445-1.964748 16.048511-5.326309 30.046317-10.069333 41.996487-4.751211 11.957333-11.220552 21.451568-19.401885 28.488844-8.18952 7.045463-18.342764 10.56052-30.453593 10.56052-12.44852 0-22.679535-3.51608-30.699185-10.56052-8.02886-7.037277-14.413268-16.531512-19.157316-28.488844-4.751211-11.95017-8.104585-25.947975-10.069333-41.996487-1.964748-16.040325-2.947122-33.070186-2.947122-51.083445 0-18.006096 0.982374-34.951023 2.947122-50.838875zM838.026378 126.409015h-59.445904V79.237669c0-6.723122-5.64251-12.254092-12.603039-12.254092h-34.219359c-7.118118 0-12.602016 5.485945-12.602016 12.254092v47.171346h-415.973969V79.237669c0-6.723122-5.64251-12.254092-12.602016-12.254092h-34.220383c-7.118118 0-12.602016 5.485945-12.602016 12.254092v47.171346H184.311773c-65.738213 0-118.828362 53.168943-118.828363 118.755707v594.434478c0 65.448618 53.200666 118.755708 118.828363 118.755707h653.715628c65.738213 0 118.828362-53.168943 118.828363-118.755707V245.164722c-0.001023-65.448618-53.202713-118.755708-118.829386-118.755707z m59.402925 713.191208c0 32.806173-26.523073 59.331293-59.402925 59.331293H184.310749c-32.757055 0-59.402925-26.65201-59.402925-59.331293V364.107695h772.521479v475.492528z m0-534.916942H124.907824v-59.518559c0-32.806173 26.523073-59.331293 59.402925-59.331293h59.445904v47.171346c0 6.723122 5.64251 12.254092 12.602016 12.254091h34.220382c7.118118 0 12.602016-5.485945 12.602016-12.254091v-47.171346h415.972947v47.171346c0 6.723122 5.64251 12.254092 12.602015 12.254091h34.21936c7.119141 0 12.603039-5.485945 12.603039-12.254091v-47.171346h59.445904c32.757055 0 59.402925 26.65201 59.402924 59.331293v59.518559z" /></svg>