<?xml version="1.0" standalone="no"?><!DOCTYPE svg PUBLIC "-//W3C//DTD SVG 1.1//EN" "http://www.w3.org/Graphics/SVG/1.1/DTD/svg11.dtd"><svg class="icon" width="256px" height="256.00px" viewBox="0 0 1024 1024" version="1.1" xmlns="http://www.w3.org/2000/svg"><path fill="#d4237a" d="M561.432853 749.608629c-5.080715 6.877641-11.711739 12.279674-19.893073 16.210194-8.188496 3.929496-18.173918 5.894244-29.961382 5.894244-18.343787 0-33.079396-4.988618-44.207851-14.981203-11.136641-9.985422-17.522072-24.314779-19.156292-42.978861h-55.995315c0.652869 17.36039 4.175089 32.502251 10.56052 45.433772 6.385431 12.94073 14.981203 23.822568 25.787316 32.663934 10.806113 8.842389 23.331381 15.47239 37.575803 19.893073 14.244422 4.419659 29.716812 6.630001 46.418193 6.630001 20.952194 0 38.96443-3.852748 54.030567-11.541871 15.057951-7.691169 27.421536-17.513886 37.084617-29.472242 9.654894-11.949146 16.699334-25.211195 21.12104-39.786145 4.420683-14.56574 6.630001-28.734438 6.63-42.487673 0-16.369829-2.378164-31.597649-7.122211-45.680389-4.751211-14.075577-11.710716-26.279526-20.874423-36.594453-9.171893-10.314926-20.469194-18.334577-33.891901-24.068162-13.430894-5.725398-28.65769-8.595772-45.680389-8.595772-11.466146 0-23.00904 2.210341-34.629705 6.631024-11.627828 4.420683-21.205974 10.891048-28.734438 19.401886l-0.982374-0.982374 17.682731-87.431282h136.058792v-50.101071h-177.809685l-36.839023 188.124611h55.995315c4.582365-12.110829 12.034081-20.384259 22.349008-24.803918 10.314926-4.420683 21.367657-6.631024 33.155121-6.631025 11.128455 0 20.875446 1.964748 29.225625 5.894244 8.350179 3.930519 15.142885 9.171893 20.385282 15.717983 5.233188 6.554276 9.162684 14.167674 11.788488 22.840195 2.617617 8.679683 3.929496 17.766642 3.929496 27.260877 0 10.483772-1.066285 20.307512-3.192716 29.471218-2.134617 9.17394-5.734608 17.193591-10.807136 24.069185zM838.026378 126.409015h-59.445904V79.237669c0-6.723122-5.64251-12.254092-12.603039-12.254092h-34.219359c-7.118118 0-12.602016 5.485945-12.602016 12.254092v47.171346h-415.973969V79.237669c0-6.723122-5.64251-12.254092-12.602016-12.254092h-34.220383c-7.118118 0-12.602016 5.485945-12.602016 12.254092v47.171346H184.311773c-65.738213 0-118.828362 53.168943-118.828363 118.755707v594.434478c0 65.448618 53.200666 118.755708 118.828363 118.755707h653.715628c65.738213 0 118.828362-53.168943 118.828363-118.755707V245.164722c-0.001023-65.448618-53.202713-118.755708-118.829386-118.755707z m59.402925 713.191208c0 32.806173-26.523073 59.331293-59.402925 59.331293H184.310749c-32.757055 0-59.402925-26.65201-59.402925-59.331293V364.107695h772.521479v475.492528z m0-534.916942H124.907824v-59.518559c0-32.806173 26.523073-59.331293 59.402925-59.331293h59.445904v47.171346c0 6.723122 5.64251 12.254092 12.602016 12.254091h34.220382c7.118118 0 12.602016-5.485945 12.602016-12.254091v-47.171346h415.972947v47.171346c0 6.723122 5.64251 12.254092 12.602015 12.254091h34.21936c7.119141 0 12.603039-5.485945 12.603039-12.254091v-47.171346h59.445904c32.757055 0 59.402925 26.65201 59.402924 59.331293v59.518559z" /></svg>