<?xml version="1.0" standalone="no"?><!DOCTYPE svg PUBLIC "-//W3C//DTD SVG 1.1//EN" "http://www.w3.org/Graphics/SVG/1.1/DTD/svg11.dtd"><svg class="icon" width="256px" height="256.00px" viewBox="0 0 1024 1024" version="1.1" xmlns="http://www.w3.org/2000/svg"><path fill="#d4237a" d="M956.85474 839.600223V245.164722c0-65.448618-53.200666-118.755708-118.828362-118.755707h-59.445904V79.237669c0-6.723122-5.64251-12.254092-12.603039-12.254092h-34.219359c-7.118118 0-12.602016 5.485945-12.602016 12.254092v47.171346h-415.973969V79.237669c0-6.723122-5.64251-12.254092-12.602016-12.254092h-34.220383c-7.118118 0-12.602016 5.485945-12.602016 12.254092v47.171346H184.311773c-65.738213 0-118.828362 53.168943-118.828363 118.755707v594.434478c0 65.448618 53.200666 118.755708 118.828363 118.755707h653.715628c65.73719 0.001023 118.827339-53.16792 118.827339-118.754684zM124.907824 245.164722c0-32.806173 26.523073-59.331293 59.402925-59.331293h59.445904v47.171346c0 6.723122 5.64251 12.254092 12.602016 12.254091h34.220382c7.118118 0 12.602016-5.485945 12.602016-12.254091v-47.171346h415.972947v47.171346c0 6.723122 5.64251 12.254092 12.602015 12.254091h34.21936c7.119141 0 12.603039-5.485945 12.603039-12.254091v-47.171346h59.445904c32.757055 0 59.402925 26.65201 59.402924 59.331293v59.518559H124.907824v-59.518559z m713.118554 653.765771H184.310749c-32.757055 0-59.402925-26.65201-59.402925-59.331293V364.107695h772.521479v475.491505c0 32.807197-26.523073 59.331293-59.402925 59.331293zM481.444077 813.546847h61.398372v-343.830882h-45.680389c-1.964748 10.483772-6.14086 19.325138-12.526291 26.524096-6.385431 7.206122-14.083763 13.101389-23.085788 17.682731-9.010211 4.589528-19.079544 7.858992-30.207999 9.82374-11.135618 1.964748-22.594601 2.947122-34.383088 2.947122v44.205804h84.48416v242.647389z" /></svg>