<?xml version="1.0" standalone="no"?><!DOCTYPE svg PUBLIC "-//W3C//DTD SVG 1.1//EN" "http://www.w3.org/Graphics/SVG/1.1/DTD/svg11.dtd"><svg class="icon" width="256px" height="256.00px" viewBox="0 0 1024 1024" version="1.1" xmlns="http://www.w3.org/2000/svg"><path fill="#d4237a" d="M401.987421 625.542986c-10.154267 8.842389-21.290909 17.115819-33.401738 24.804942a620.87364 620.87364 0 0 0-34.874275 23.822568c-23.254633 15.717983-41.590234 34.221406-55.012942 55.504129-13.430894 21.289885-20.307512 46.171576-20.629853 74.66042h234.787375v-50.101072h-167.494759c2.287089-7.528464 6.54609-14.650675 12.770861-21.366633 6.216585-6.707772 13.507642-13.178137 21.856798-19.401886 8.351202-6.216585 17.438161-12.440333 27.2619-18.665105 9.82374-6.216585 19.647479-12.770861 29.471218-19.647479a368.43935 368.43935 0 0 0 28.488845-22.103414c9.163707-7.860015 17.353227-16.454764 24.559349-25.787316 7.198959-9.332553 12.932544-19.563568 17.192567-30.699186 4.250814-11.128455 6.384407-23.576975 6.384408-37.33021 0-11.128455-1.803066-22.839171-5.402034-35.118845-3.607154-12.279674-9.746992-23.653723-18.419511-34.137495-8.679683-10.475586-20.061918-19.156292-34.137495-26.03291-14.083763-6.876618-31.604812-10.314926-52.557007-10.314926-19.325138 0-36.271088 3.361561-50.837851 10.069333-14.57495 6.714935-26.938536 15.963577-37.084617 27.752064-10.154267 11.788487-17.767666 25.787316-22.840194 41.995463-5.080715 16.210193-7.613398 33.816177-7.613399 52.803623h55.995316c0.322341-12.110829 1.550309-23.408129 3.683902-33.891901 2.12643-10.475586 5.403057-19.562545 9.823739-27.260877 4.420683-7.690146 10.314926-13.753235 17.682732-18.173918 7.367805-4.420683 16.615423-6.631024 27.752064-6.631025 12.110829 0 21.934568 2.048659 29.471218 6.139838 7.528464 4.098341 13.422707 9.17087 17.682731 15.226796 4.250814 6.063089 7.122211 12.609179 8.594749 19.647479 1.473561 7.045463 2.210341 13.676487 2.210341 19.892049-0.329505 13.430894-3.768837 25.297153-10.314926 35.612079-6.554276 10.313903-14.903431 19.892049-25.049512 28.733415zM552.045041 751.042281c8.67252 17.522072 20.790512 31.927153 36.347837 43.224454 15.549138 11.2973 35.612079 16.945951 60.171427 16.945951s44.61308-5.64865 60.170405-16.945951c15.548114-11.2973 27.66713-25.702382 36.347836-43.224454 8.673543-17.513886 14.566764-36.754089 17.682731-57.714469 3.107781-20.952194 4.666276-41.258683 4.666276-60.907185s-1.557472-39.947827-4.666276-60.908208c-3.115967-20.952194-9.010211-40.192398-17.682731-57.713447-8.679683-17.513886-20.798698-31.927153-36.347836-43.224454-15.557324-11.2973-35.611056-16.945951-60.170405-16.94595s-44.621267 5.64865-60.171427 16.94595c-15.556301 11.2973-27.675316 25.710568-36.347837 43.224454-8.679683 17.521049-14.573927 36.762275-17.682731 57.713447-3.115967 20.959358-4.666276 41.259706-4.666276 60.908208s1.550309 39.954991 4.666276 60.907185c3.107781 20.960381 9.002025 40.200584 17.682731 57.714469z m36.592407-169.460529c1.964748-15.878642 5.318122-29.877471 10.069333-41.996487 4.744048-12.109806 11.128455-21.687952 19.157315-28.733415 8.019651-7.0383 18.250666-10.56052 30.699186-10.56052 12.110829 0 22.264073 3.52222 30.453593 10.56052 8.181333 7.045463 14.650675 16.623609 19.401885 28.733415 4.743024 12.119015 8.104585 26.117844 10.069333 41.996487 1.964748 15.886829 2.947122 32.832779 2.947122 50.838875 0 18.013259-0.982374 35.043121-2.947122 51.083445-1.964748 16.048511-5.326309 30.046317-10.069333 41.996487-4.751211 11.957333-11.220552 21.451568-19.401885 28.488844-8.18952 7.045463-18.342764 10.56052-30.453593 10.56052-12.44852 0-22.679535-3.51608-30.699186-10.56052-8.02886-7.037277-14.413268-16.531512-19.157315-28.488844-4.751211-11.95017-8.104585-25.947975-10.069333-41.996487-1.964748-16.040325-2.947122-33.070186-2.947122-51.083445 0-18.006096 0.982374-34.951023 2.947122-50.838875zM838.026378 126.409015h-59.445904V79.237669c0-6.723122-5.64251-12.254092-12.603039-12.254092h-34.219359c-7.118118 0-12.602016 5.485945-12.602016 12.254092v47.171346h-415.973969V79.237669c0-6.723122-5.64251-12.254092-12.602016-12.254092h-34.220383c-7.118118 0-12.602016 5.485945-12.602016 12.254092v47.171346H184.311773c-65.738213 0-118.828362 53.168943-118.828363 118.755707v594.434478c0 65.448618 53.200666 118.755708 118.828363 118.755707h653.715628c65.738213 0 118.828362-53.168943 118.828363-118.755707V245.164722c-0.001023-65.448618-53.202713-118.755708-118.829386-118.755707z m59.402925 713.191208c0 32.806173-26.523073 59.331293-59.402925 59.331293H184.310749c-32.757055 0-59.402925-26.65201-59.402925-59.331293V364.107695h772.521479v475.492528z m0-534.916942H124.907824v-59.518559c0-32.806173 26.523073-59.331293 59.402925-59.331293h59.445904v47.171346c0 6.723122 5.64251 12.254092 12.602016 12.254091h34.220382c7.118118 0 12.602016-5.485945 12.602016-12.254091v-47.171346h415.972947v47.171346c0 6.723122 5.64251 12.254092 12.602015 12.254091h34.21936c7.119141 0 12.603039-5.485945 12.603039-12.254091v-47.171346h59.445904c32.757055 0 59.402925 26.65201 59.402924 59.331293v59.518559z" /></svg>