<?xml version="1.0" standalone="no"?><!DOCTYPE svg PUBLIC "-//W3C//DTD SVG 1.1//EN" "http://www.w3.org/Graphics/SVG/1.1/DTD/svg11.dtd"><svg class="icon" width="256px" height="256.00px" viewBox="0 0 1024 1024" version="1.1" xmlns="http://www.w3.org/2000/svg"><path fill="#d4237a" d="M339.196329 811.499212h61.398372v-343.830883h-45.680389c-1.964748 10.483772-6.139837 19.325138-12.525268 26.524097-6.385431 7.206122-14.083763 13.101389-23.085788 17.682731-9.010211 4.589528-19.079544 7.858992-30.207999 9.823739-11.135618 1.964748-22.594601 2.947122-34.383088 2.947122v44.206828h84.48416v242.646366zM517.004991 698.526207c0.322341 18.012236 3.108804 34.383088 8.350178 49.117674 5.234211 14.735609 12.847609 27.345812 22.840195 37.821398 9.984399 10.483772 22.425755 18.588357 37.329186 24.314778 14.897292 5.725398 32.334429 8.594749 52.311413 8.594749 16.369829 0 31.927153-2.454912 46.662763-7.367805 14.735609-4.91187 27.668153-11.865235 38.804794-20.874423 11.128455-9.003048 19.96982-19.96982 26.524097-32.909527 6.54609-12.932544 9.82374-27.583219 9.823739-43.961235 0-22.264073-5.486968-41.174772-16.454763-56.731072-10.974959-15.549138-26.278503-25.297153-45.925982-29.226648v-0.982374c16.700357-5.894244 28.980032-15.303544 36.839023-28.243251 7.858992-12.932544 11.788487-28.075429 11.788487-45.434795 0-15.057951-3.115967-28.40391-9.331529-40.031739-6.224772-11.619642-14.490016-21.197788-24.804942-28.734438-10.314926-7.528464-21.941732-13.262048-34.874276-17.191544-12.94073-3.929496-26.116821-5.894244-39.540551-5.894244-17.361413 0-32.909527 2.947122-46.663786 8.841366-13.752212 5.894244-25.464975 14.083763-35.119869 24.559349-9.662057 10.483772-17.275455 22.840194-22.839171 37.084616-5.571902 14.244422-8.679683 29.716812-9.332552 46.417169h55.995315c-0.329505-8.842389 0.652869-17.437138 2.947122-25.787316 2.287089-8.350179 5.810333-15.879666 10.56052-22.594601 4.743024-6.707772 10.722202-12.034081 17.928324-15.963576 7.198959-3.929496 15.717983-5.894244 25.541723-5.894244 15.717983 0 28.565593 4.420683 38.559201 13.262048 9.984399 8.842389 14.981203 20.629853 14.981203 35.366486 0 10.483772-2.210341 19.325138-6.630001 26.524096-4.420683 7.206122-10.238179 12.854772-17.437138 16.945951-7.207146 4.098341-15.395642 6.961552-24.559349 8.595772a129.35409 129.35409 0 0 1-27.50647 1.964748v41.750893c11.128455-0.321318 22.018479 0 32.663934 0.982374 10.637268 0.982374 20.215414 3.52222 28.734438 7.613398 8.510838 4.098341 15.387455 10.069333 20.628829 17.928325 5.234211 7.860015 7.860015 18.504446 7.860015 31.927153 0 19.647479-6.308683 34.797527-18.910698 45.433772-12.609179 10.645454-28.243251 15.9646-46.908357 15.9646-21.941732 0-38.396495-6.953366-49.364291-20.875447-10.974959-13.914918-16.132422-31.352055-15.472389-52.310389h-55.998385zM838.026378 126.409015h-59.445904V79.237669c0-6.723122-5.64251-12.254092-12.603039-12.254092h-34.219359c-7.118118 0-12.602016 5.485945-12.602016 12.254092v47.171346h-415.973969V79.237669c0-6.723122-5.64251-12.254092-12.602016-12.254092h-34.220383c-7.118118 0-12.602016 5.485945-12.602016 12.254092v47.171346H184.311773c-65.738213 0-118.828362 53.168943-118.828363 118.755707v594.434478c0 65.448618 53.200666 118.755708 118.828363 118.755707h653.715628c65.738213 0 118.828362-53.168943 118.828363-118.755707V245.164722c-0.001023-65.448618-53.202713-118.755708-118.829386-118.755707z m59.402925 713.191208c0 32.806173-26.523073 59.331293-59.402925 59.331293H184.310749c-32.757055 0-59.402925-26.65201-59.402925-59.331293V364.107695h772.521479v475.492528z m0-534.916942H124.907824v-59.518559c0-32.806173 26.523073-59.331293 59.402925-59.331293h59.445904v47.171346c0 6.723122 5.64251 12.254092 12.602016 12.254091h34.220382c7.118118 0 12.602016-5.485945 12.602016-12.254091v-47.171346h415.972947v47.171346c0 6.723122 5.64251 12.254092 12.602015 12.254091h34.21936c7.119141 0 12.603039-5.485945 12.603039-12.254091v-47.171346h59.445904c32.757055 0 59.402925 26.65201 59.402924 59.331293v59.518559z" /></svg>