<?xml version="1.0" standalone="no"?><!DOCTYPE svg PUBLIC "-//W3C//DTD SVG 1.1//EN" "http://www.w3.org/Graphics/SVG/1.1/DTD/svg11.dtd"><svg class="icon" width="256px" height="256.00px" viewBox="0 0 1024 1024" version="1.1" xmlns="http://www.w3.org/2000/svg"><path fill="#d4237a" d="M334.079798 811.499212h61.398372v-343.830883h-45.680389c-1.964748 10.483772-6.139837 19.325138-12.525268 26.524097-6.385431 7.206122-14.083763 13.101389-23.085788 17.682731-9.010211 4.589528-19.079544 7.858992-30.207999 9.823739-11.135618 1.964748-22.594601 2.947122-34.383088 2.947122v44.206828h84.48416v242.646366zM528.835434 655.79294c-11.2973 14.735609-16.946974 32.909527-16.946974 54.521755 0 16.700357 3.02387 31.765471 9.086959 45.189201 6.055926 13.430894 14.490016 24.803919 25.297152 34.136472 10.806113 9.332553 23.652699 16.454764 38.558178 21.366633 14.897292 4.912893 31.020504 7.367805 48.381917 7.367805 17.352203 0 33.477462-2.454912 48.380894-7.367805 14.897292-4.91187 27.752064-12.034081 38.5592-21.366633 10.806113-9.332553 19.23304-20.705578 25.29613-34.136472 6.054903-13.423731 9.086959-28.488845 9.086959-45.189201 0-21.612227-5.64865-39.786145-16.945951-54.521755-11.2973-14.734586-26.609031-24.559349-45.927005-29.471218v-0.982374c15.717983-5.894244 27.752064-14.981203 36.102242-27.260877s12.525268-26.76969 12.525268-43.470048c0-29.471219-9.255805-52.472072-27.752064-69.01177-18.503423-16.531512-44.943608-24.804942-79.326696-24.804942-34.384112 0-60.830437 8.273431-79.32772 24.804942-18.503423 16.539698-27.752064 39.540552-27.752064 69.01177 0 16.700357 4.175089 31.190373 12.525267 43.470048s20.384259 21.366633 36.102243 27.260877v0.982374c-19.324114 4.91187-34.626635 14.735609-45.923935 29.471218z m66.064648-137.286759c10.475586-9.003048 23.24747-13.507642 38.312584-13.507642 15.057951 0 27.827789 4.504594 38.311561 13.507642 10.475586 9.010211 15.717983 22.026666 15.717983 39.049364 0 16.379039-5.080715 28.903284-15.226796 37.576827-10.154267 8.679683-23.086811 13.016455-38.803771 13.016455-15.717983 0-28.658713-4.335748-38.804795-13.016455-10.153244-8.673543-15.226796-21.197788-15.226796-37.576827 0.001023-17.022699 5.235235-30.039153 15.72003-39.049364z m-8.351202 147.357116c12.440333-10.638291 27.997658-15.9646 46.663786-15.9646 18.664082 0 34.214243 5.326309 46.662762 15.9646 12.440333 10.644431 18.665105 25.464975 18.665106 44.451398 0 20.307512-6.224772 36.025495-18.665106 47.153949-12.44852 11.135618-27.997658 16.699334-46.662762 16.699334-18.665105 0-34.222429-5.564739-46.663786-16.699334-12.44852-11.128455-18.665105-26.846438-18.665105-47.153949 0-18.987447 6.216585-33.806967 18.665105-44.451398zM838.026378 126.409015h-59.445904V79.237669c0-6.723122-5.64251-12.254092-12.603039-12.254092h-34.219359c-7.118118 0-12.602016 5.485945-12.602016 12.254092v47.171346h-415.973969V79.237669c0-6.723122-5.64251-12.254092-12.602016-12.254092h-34.220383c-7.118118 0-12.602016 5.485945-12.602016 12.254092v47.171346H184.311773c-65.738213 0-118.828362 53.168943-118.828363 118.755707v594.434478c0 65.448618 53.200666 118.755708 118.828363 118.755707h653.715628c65.738213 0 118.828362-53.168943 118.828363-118.755707V245.164722c-0.001023-65.448618-53.202713-118.755708-118.829386-118.755707z m59.402925 713.191208c0 32.806173-26.523073 59.331293-59.402925 59.331293H184.310749c-32.757055 0-59.402925-26.65201-59.402925-59.331293V364.107695h772.521479v475.492528z m0-534.916942H124.907824v-59.518559c0-32.806173 26.523073-59.331293 59.402925-59.331293h59.445904v47.171346c0 6.723122 5.64251 12.254092 12.602016 12.254091h34.220382c7.118118 0 12.602016-5.485945 12.602016-12.254091v-47.171346h415.972947v47.171346c0 6.723122 5.64251 12.254092 12.602015 12.254091h34.21936c7.119141 0 12.603039-5.485945 12.603039-12.254091v-47.171346h59.445904c32.757055 0 59.402925 26.65201 59.402924 59.331293v59.518559z" /></svg>