<?xml version="1.0" standalone="no"?><!DOCTYPE svg PUBLIC "-//W3C//DTD SVG 1.1//EN" "http://www.w3.org/Graphics/SVG/1.1/DTD/svg11.dtd"><svg class="icon" width="256px" height="256.00px" viewBox="0 0 1024 1024" version="1.1" xmlns="http://www.w3.org/2000/svg"><path fill="#d4237a" d="M345.340259 811.499212h61.398372v-343.830883h-45.680388c-1.964748 10.483772-6.139837 19.325138-12.525268 26.524097-6.385431 7.206122-14.083763 13.101389-23.085788 17.682731-9.010211 4.589528-19.079544 7.858992-30.207999 9.823739-11.135618 1.964748-22.594601 2.947122-34.383088 2.947122v44.206828h84.484159v242.646366zM547.954887 758.205425c8.67252 17.522072 20.790512 31.927153 36.347836 43.224454 15.549138 11.2973 35.612079 16.945951 60.171428 16.94595s44.61308-5.64865 60.170404-16.94595c15.548114-11.2973 27.66713-25.702382 36.347836-43.224454 8.673543-17.513886 14.566764-36.754089 17.682731-57.71447 3.107781-20.952194 4.666276-41.258683 4.666277-60.907185s-1.557472-39.946804-4.666277-60.907185c-3.115967-20.953218-9.010211-40.192398-17.682731-57.714469-8.679683-17.513886-20.798698-31.927153-36.347836-43.224454-15.557324-11.2973-35.611056-16.945951-60.170404-16.945951s-44.621267 5.64865-60.171428 16.945951c-15.556301 11.2973-27.675316 25.710568-36.347836 43.224454-8.679683 17.522072-14.573927 36.762275-17.682732 57.714469-3.115967 20.959358-4.666276 41.258683-4.666276 60.907185s1.550309 39.954991 4.666276 60.907185c3.107781 20.960381 9.002025 40.200584 17.682732 57.71447z m36.592406-169.459507c1.964748-15.879666 5.318122-29.877471 10.069333-41.996486 4.744048-12.110829 11.128455-21.688975 19.157315-28.734438 8.019651-7.0383 18.250666-10.56052 30.699186-10.56052 12.110829 0 22.264073 3.52222 30.453593 10.56052 8.181333 7.045463 14.650675 16.623609 19.401885 28.734438 4.743024 12.119015 8.104585 26.116821 10.069333 41.996486 1.964748 15.886829 2.947122 32.832779 2.947122 50.837852 0 18.013259-0.982374 35.043121-2.947122 51.083446-1.964748 16.048511-5.326309 30.046317-10.069333 41.996486-4.751211 11.957333-11.220552 21.451568-19.401885 28.488845-8.18952 7.045463-18.342764 10.56052-30.453593 10.56052-12.44852 0-22.679535-3.51608-30.699186-10.56052-8.02886-7.037277-14.413268-16.531512-19.157315-28.488845-4.751211-11.95017-8.104585-25.947975-10.069333-41.996486-1.964748-16.040325-2.947122-33.070186-2.947122-51.083446 0-18.005073 0.982374-34.95 2.947122-50.837852zM838.026378 126.409015h-59.445904V79.237669c0-6.723122-5.64251-12.254092-12.603039-12.254092h-34.219359c-7.118118 0-12.602016 5.485945-12.602016 12.254092v47.171346h-415.973969V79.237669c0-6.723122-5.64251-12.254092-12.602016-12.254092h-34.220383c-7.118118 0-12.602016 5.485945-12.602016 12.254092v47.171346H184.311773c-65.738213 0-118.828362 53.168943-118.828363 118.755707v594.434478c0 65.448618 53.200666 118.755708 118.828363 118.755707h653.715628c65.738213 0 118.828362-53.168943 118.828363-118.755707V245.164722c-0.001023-65.448618-53.202713-118.755708-118.829386-118.755707z m59.402925 713.191208c0 32.806173-26.523073 59.331293-59.402925 59.331293H184.310749c-32.757055 0-59.402925-26.65201-59.402925-59.331293V364.107695h772.521479v475.492528z m0-534.916942H124.907824v-59.518559c0-32.806173 26.523073-59.331293 59.402925-59.331293h59.445904v47.171346c0 6.723122 5.64251 12.254092 12.602016 12.254091h34.220382c7.118118 0 12.602016-5.485945 12.602016-12.254091v-47.171346h415.972947v47.171346c0 6.723122 5.64251 12.254092 12.602015 12.254091h34.21936c7.119141 0 12.603039-5.485945 12.603039-12.254091v-47.171346h59.445904c32.757055 0 59.402925 26.65201 59.402924 59.331293v59.518559z" /></svg>