<?xml version="1.0" standalone="no"?><!DOCTYPE svg PUBLIC "-//W3C//DTD SVG 1.1//EN" "http://www.w3.org/Graphics/SVG/1.1/DTD/svg11.dtd"><svg class="icon" width="256px" height="256.00px" viewBox="0 0 1024 1024" version="1.1" xmlns="http://www.w3.org/2000/svg"><path fill="#d4237a" d="M398.917502 625.542986c-10.154267 8.842389-21.290909 17.115819-33.401738 24.804942a620.500133 620.500133 0 0 0-34.874275 23.822568c-23.254633 15.717983-41.590234 34.221406-55.012941 55.504129-13.430894 21.289885-20.307512 46.171576-20.629853 74.66042h234.787374v-50.101072h-167.494759c2.287089-7.528464 6.54609-14.650675 12.770862-21.366633 6.216585-6.707772 13.507642-13.178137 21.856797-19.401886 8.351202-6.216585 17.438161-12.440333 27.2619-18.665105 9.82374-6.216585 19.647479-12.770861 29.471219-19.647479a368.43935 368.43935 0 0 0 28.488844-22.103414c9.163707-7.860015 17.353227-16.454764 24.559349-25.787316 7.198959-9.332553 12.932544-19.563568 17.192568-30.699186 4.250814-11.128455 6.384407-23.576975 6.384407-37.33021 0-11.128455-1.803066-22.839171-5.402033-35.118845-3.607154-12.279674-9.746992-23.653723-18.419512-34.137495-8.679683-10.475586-20.061918-19.156292-34.137495-26.03291-14.083763-6.876618-31.604812-10.314926-52.557006-10.314926-19.325138 0-36.271088 3.361561-50.837852 10.069333-14.57495 6.714935-26.938536 15.963577-37.084617 27.752064-10.154267 11.788487-17.766642 25.787316-22.840194 41.995463-5.080715 16.210193-7.612375 33.816177-7.612375 52.803623h55.995315c0.322341-12.110829 1.550309-23.408129 3.683903-33.891901 2.12643-10.475586 5.403057-19.562545 9.824762-27.260877 4.420683-7.690146 10.314926-13.753235 17.682732-18.173918 7.366781-4.420683 16.615423-6.631024 27.752064-6.631025 12.110829 0 21.934568 2.048659 29.471218 6.139838 7.528464 4.098341 13.422707 9.17087 17.682731 15.226796 4.250814 6.063089 7.122211 12.609179 8.594749 19.647479 1.473561 7.045463 2.210341 13.676487 2.210341 19.892049-0.329505 13.430894-3.768837 25.297153-10.314926 35.612079-6.556323 10.313903-14.905478 19.892049-25.051559 28.733415zM541.116131 648.629797c-11.2973 14.735609-16.946974 32.909527-16.946974 54.521754 0 16.700357 3.02387 31.765471 9.086959 45.189202 6.055926 13.430894 14.490016 24.803919 25.297153 34.136471 10.806113 9.332553 23.652699 16.454764 38.558177 21.366634 14.897292 4.912893 31.020504 7.367805 48.381917 7.367804 17.352203 0 33.477462-2.454912 48.380894-7.367804 14.897292-4.91187 27.752064-12.034081 38.559201-21.366634 10.806113-9.332553 19.23304-20.705578 25.296129-34.136471 6.054903-13.423731 9.086959-28.488845 9.086959-45.189202 0-21.612227-5.64865-39.786145-16.94595-54.521754s-26.609031-24.559349-45.927006-29.471219v-0.982373c15.717983-5.895267 27.752064-14.982226 36.102243-27.261901s12.525268-26.76969 12.525268-43.469024c0-29.471219-9.255805-52.472072-27.752064-69.01177-18.503423-16.531512-44.943608-24.804942-79.326697-24.804942-34.384112 0-60.830437 8.273431-79.32772 24.804942-18.503423 16.539698-27.752064 39.540552-27.752064 69.01177 0 16.699334 4.175089 31.18935 12.525268 43.469024s20.384259 21.366633 36.102243 27.261901v0.982373c-19.324114 4.91187-34.626635 14.734586-45.923936 29.471219z m66.063625-137.28676c10.475586-9.003048 23.24747-13.507642 38.312584-13.507641 15.057951 0 27.827789 4.504594 38.311561 13.507641 10.475586 9.010211 15.717983 22.026666 15.717983 39.049365 0 16.378016-5.080715 28.903284-15.226796 37.575804-10.154267 8.679683-23.086811 13.016455-38.803771 13.016454-15.717983 0-28.658713-4.335748-38.804794-13.016454-10.153244-8.67252-15.226796-21.197788-15.226797-37.575804 0.002047-17.022699 5.236258-30.039153 15.72003-39.049365z m-8.350178 147.356093c12.440333-10.637268 27.997658-15.963577 46.663785-15.963577 18.664082 0 34.214243 5.326309 46.662763 15.963577 12.440333 10.644431 18.665105 25.464975 18.665105 44.452421 0 20.307512-6.224772 36.025495-18.665105 47.15395-12.44852 11.135618-27.997658 16.699334-46.662763 16.699334-18.665105 0-34.222429-5.564739-46.663785-16.699334-12.44852-11.128455-18.665105-26.846438-18.665106-47.15395 0-18.98847 6.216585-33.80799 18.665106-44.452421zM838.026378 126.409015h-59.445904V79.237669c0-6.723122-5.64251-12.254092-12.603039-12.254092h-34.219359c-7.118118 0-12.602016 5.485945-12.602016 12.254092v47.171346h-415.973969V79.237669c0-6.723122-5.64251-12.254092-12.602016-12.254092h-34.220383c-7.118118 0-12.602016 5.485945-12.602016 12.254092v47.171346H184.311773c-65.738213 0-118.828362 53.168943-118.828363 118.755707v594.434478c0 65.448618 53.200666 118.755708 118.828363 118.755707h653.715628c65.738213 0 118.828362-53.168943 118.828363-118.755707V245.164722c-0.001023-65.448618-53.202713-118.755708-118.829386-118.755707z m59.402925 713.191208c0 32.806173-26.523073 59.331293-59.402925 59.331293H184.310749c-32.757055 0-59.402925-26.65201-59.402925-59.331293V364.107695h772.521479v475.492528z m0-534.916942H124.907824v-59.518559c0-32.806173 26.523073-59.331293 59.402925-59.331293h59.445904v47.171346c0 6.723122 5.64251 12.254092 12.602016 12.254091h34.220382c7.118118 0 12.602016-5.485945 12.602016-12.254091v-47.171346h415.972947v47.171346c0 6.723122 5.64251 12.254092 12.602015 12.254091h34.21936c7.119141 0 12.603039-5.485945 12.603039-12.254091v-47.171346h59.445904c32.757055 0 59.402925 26.65201 59.402924 59.331293v59.518559z" /></svg>