<?xml version="1.0" standalone="no"?><!DOCTYPE svg PUBLIC "-//W3C//DTD SVG 1.1//EN" "http://www.w3.org/Graphics/SVG/1.1/DTD/svg11.dtd"><svg class="icon" width="256px" height="256.00px" viewBox="0 0 1024 1024" version="1.1" xmlns="http://www.w3.org/2000/svg"><path fill="#d4237a" d="M339.196329 811.499212h61.398372v-343.830883h-45.680389c-1.964748 10.483772-6.139837 19.325138-12.525268 26.524097-6.385431 7.206122-14.083763 13.101389-23.085788 17.682731-9.010211 4.589528-19.079544 7.858992-30.207999 9.823739-11.135618 1.964748-22.594601 2.947122-34.383088 2.947122v44.206828h84.48416v242.646366zM664.853293 632.707153c-10.154267 8.841366-21.290909 17.114796-33.401737 24.804942a621.412922 621.412922 0 0 0-34.874275 23.821545c-23.254633 15.717983-41.590234 34.221406-55.012942 55.504128-13.430894 21.289885-20.307512 46.171576-20.629853 74.66042h234.787375v-50.101071h-167.494759c2.286066-7.528464 6.54609-14.650675 12.769838-21.366634 6.216585-6.707772 13.507642-13.178137 21.85782-19.401885 8.350179-6.216585 17.437138-12.440333 27.260878-18.665105 9.82374-6.216585 19.647479-12.769838 29.471218-19.647479a368.43935 368.43935 0 0 0 28.488845-22.103414c9.163707-7.858992 17.353227-16.454764 24.559348-25.787316 7.198959-9.332553 12.932544-19.562545 17.192568-30.699186 4.250814-11.128455 6.384407-23.576975 6.384407-37.329187 0-11.128455-1.803066-22.840194-5.402033-35.119869-3.607154-12.279674-9.746992-23.653723-18.419512-34.137495-8.679683-10.475586-20.061918-19.156292-34.137495-26.032909-14.083763-6.876618-31.604812-10.314926-52.557006-10.314927-19.325138 0-36.270065 3.361561-50.837852 10.069333-14.573927 6.714935-26.938536 15.963577-37.084616 27.752064-10.153244 11.788487-17.766642 25.787316-22.839171 41.996487-5.081739 16.20917-7.613398 33.815153-7.613399 52.8026h55.995316c0.322341-12.110829 1.551332-23.408129 3.684925-33.891902 2.125407-10.475586 5.402033-19.562545 9.82374-27.260877 4.420683-7.690146 10.314926-13.753235 17.682731-18.173918 7.367805-4.420683 16.615423-6.631024 27.752064-6.631024 12.110829 0 21.934568 2.048659 29.471218 6.139837 7.528464 4.098341 13.422707 9.17087 17.682732 15.226796 4.250814 6.064113 7.122211 12.610202 8.594748 19.647479 1.473561 7.046486 2.210341 13.676487 2.210342 19.893073-0.329505 13.430894-3.768837 25.296129-10.314927 35.611055-6.5553 10.314926-14.904455 19.893072-25.050536 28.734439zM838.026378 126.409015h-59.445904V79.237669c0-6.723122-5.64251-12.254092-12.603039-12.254092h-34.219359c-7.118118 0-12.602016 5.485945-12.602016 12.254092v47.171346h-415.973969V79.237669c0-6.723122-5.64251-12.254092-12.602016-12.254092h-34.220383c-7.118118 0-12.602016 5.485945-12.602016 12.254092v47.171346H184.311773c-65.738213 0-118.828362 53.168943-118.828363 118.755707v594.434478c0 65.448618 53.200666 118.755708 118.828363 118.755707h653.715628c65.738213 0 118.828362-53.168943 118.828363-118.755707V245.164722c-0.001023-65.448618-53.202713-118.755708-118.829386-118.755707z m59.402925 713.191208c0 32.806173-26.523073 59.331293-59.402925 59.331293H184.310749c-32.757055 0-59.402925-26.65201-59.402925-59.331293V364.107695h772.521479v475.492528z m0-534.916942H124.907824v-59.518559c0-32.806173 26.523073-59.331293 59.402925-59.331293h59.445904v47.171346c0 6.723122 5.64251 12.254092 12.602016 12.254091h34.220382c7.118118 0 12.602016-5.485945 12.602016-12.254091v-47.171346h415.972947v47.171346c0 6.723122 5.64251 12.254092 12.602015 12.254091h34.21936c7.119141 0 12.603039-5.485945 12.603039-12.254091v-47.171346h59.445904c32.757055 0 59.402925 26.65201 59.402924 59.331293v59.518559z" /></svg>