<?xml version="1.0" standalone="no"?><!DOCTYPE svg PUBLIC "-//W3C//DTD SVG 1.1//EN" "http://www.w3.org/Graphics/SVG/1.1/DTD/svg11.dtd"><svg class="icon" width="256px" height="256.00px" viewBox="0 0 1024 1024" version="1.1" xmlns="http://www.w3.org/2000/svg"><path fill="#d4237a" d="M398.917502 625.542986c-10.154267 8.842389-21.290909 17.115819-33.401738 24.804942a620.500133 620.500133 0 0 0-34.874275 23.822568c-23.254633 15.717983-41.590234 34.221406-55.012941 55.504129-13.430894 21.289885-20.307512 46.171576-20.629853 74.66042h234.787374v-50.101072h-167.494759c2.287089-7.528464 6.54609-14.650675 12.770862-21.366633 6.216585-6.707772 13.507642-13.178137 21.856797-19.401886 8.351202-6.216585 17.438161-12.440333 27.2619-18.665105 9.82374-6.216585 19.647479-12.770861 29.471219-19.647479a368.43935 368.43935 0 0 0 28.488844-22.103414c9.163707-7.860015 17.353227-16.454764 24.559349-25.787316 7.198959-9.332553 12.932544-19.563568 17.192568-30.699186 4.250814-11.128455 6.384407-23.576975 6.384407-37.33021 0-11.128455-1.803066-22.839171-5.402033-35.118845-3.607154-12.279674-9.746992-23.653723-18.419512-34.137495-8.679683-10.475586-20.061918-19.156292-34.137495-26.03291-14.083763-6.876618-31.604812-10.314926-52.557006-10.314926-19.325138 0-36.271088 3.361561-50.837852 10.069333-14.57495 6.714935-26.938536 15.963577-37.084617 27.752064-10.154267 11.788487-17.766642 25.787316-22.840194 41.995463-5.080715 16.210193-7.612375 33.816177-7.612375 52.803623h55.995315c0.322341-12.110829 1.550309-23.408129 3.683903-33.891901 2.12643-10.475586 5.403057-19.562545 9.824762-27.260877 4.420683-7.690146 10.314926-13.753235 17.682732-18.173918 7.366781-4.420683 16.615423-6.631024 27.752064-6.631025 12.110829 0 21.934568 2.048659 29.471218 6.139838 7.528464 4.098341 13.422707 9.17087 17.682731 15.226796 4.250814 6.063089 7.122211 12.609179 8.594749 19.647479 1.473561 7.045463 2.210341 13.676487 2.210341 19.892049-0.329505 13.430894-3.768837 25.297153-10.314926 35.612079-6.556323 10.313903-14.905478 19.892049-25.051559 28.733415zM695.348841 742.445486c-5.080715 6.877641-11.711739 12.279674-19.893072 16.210193-8.188496 3.929496-18.173918 5.894244-29.961382 5.894244-18.343787 0-33.078373-4.988618-44.206828-14.981203-11.136641-9.985422-17.522072-24.314779-19.157315-42.97886h-55.995315c0.652869 17.36039 4.175089 32.502251 10.560519 45.433772 6.385431 12.94073 14.981203 23.822568 25.787317 32.663934 10.806113 8.842389 23.331381 15.47239 37.575803 19.893072 14.244422 4.419659 29.716812 6.630001 46.417169 6.630001 20.952194 0 38.96443-3.852748 54.030568-11.54187 15.057951-7.691169 27.421536-17.513886 37.084616-29.472242 9.654894-11.949146 16.699334-25.211195 21.12104-39.786145 4.420683-14.56574 6.630001-28.734438 6.630001-42.487674 0-16.370853-2.378164-31.597649-7.122211-45.681412-4.751211-14.075577-11.710716-26.278503-20.874423-36.593429-9.171893-10.314926-20.469194-18.3356-33.891901-24.069185-13.430894-5.725398-28.65769-8.594749-45.680389-8.594749-11.466146 0-23.00904 2.210341-34.629705 6.630001-11.626805 4.420683-21.204951 10.891048-28.734438 19.401885l-0.982374-0.982374 17.682731-87.430258h136.058792v-50.101071h-177.809685l-36.839023 188.124611h55.995315c4.582365-12.110829 12.034081-20.384259 22.349007-24.804942s21.367657-6.630001 33.155121-6.630001c11.128455 0 20.875446 1.964748 29.225625 5.894244s15.142885 9.17087 20.385283 15.717983c5.233188 6.553253 9.162684 14.167674 11.788487 22.839171 2.617617 8.679683 3.929496 17.766642 3.929496 27.2619 0 10.483772-1.066285 20.307512-3.192715 29.471219-2.134617 9.17394-5.733585 17.193591-10.806114 24.069185zM838.026378 126.409015h-59.445904V79.237669c0-6.723122-5.64251-12.254092-12.603039-12.254092h-34.219359c-7.118118 0-12.602016 5.485945-12.602016 12.254092v47.171346h-415.973969V79.237669c0-6.723122-5.64251-12.254092-12.602016-12.254092h-34.220383c-7.118118 0-12.602016 5.485945-12.602016 12.254092v47.171346H184.311773c-65.738213 0-118.828362 53.168943-118.828363 118.755707v594.434478c0 65.448618 53.200666 118.755708 118.828363 118.755707h653.715628c65.738213 0 118.828362-53.168943 118.828363-118.755707V245.164722c-0.001023-65.448618-53.202713-118.755708-118.829386-118.755707z m59.402925 713.191208c0 32.806173-26.523073 59.331293-59.402925 59.331293H184.310749c-32.757055 0-59.402925-26.65201-59.402925-59.331293V364.107695h772.521479v475.492528z m0-534.916942H124.907824v-59.518559c0-32.806173 26.523073-59.331293 59.402925-59.331293h59.445904v47.171346c0 6.723122 5.64251 12.254092 12.602016 12.254091h34.220382c7.118118 0 12.602016-5.485945 12.602016-12.254091v-47.171346h415.972947v47.171346c0 6.723122 5.64251 12.254092 12.602015 12.254091h34.21936c7.119141 0 12.603039-5.485945 12.603039-12.254091v-47.171346h59.445904c32.757055 0 59.402925 26.65201 59.402924 59.331293v59.518559z" /></svg>