<?xml version="1.0" standalone="no"?><!DOCTYPE svg PUBLIC "-//W3C//DTD SVG 1.1//EN" "http://www.w3.org/Graphics/SVG/1.1/DTD/svg11.dtd"><svg class="icon" width="256px" height="256.00px" viewBox="0 0 1024 1024" version="1.1" xmlns="http://www.w3.org/2000/svg"><path fill="#d4237a" d="M417.554978 766.063393c9.332553 16.210193 22.103414 28.980032 38.312584 38.312584s36.915771 13.998829 62.134129 13.998829c17.023722 0 32.580023-2.947122 46.663786-8.841366 14.075577-5.894244 26.194592-14.160511 36.347836-24.804942 10.146081-10.637268 17.929348-23.085788 23.331381-37.329187 5.403057-14.244422 8.104585-29.716812 8.104585-46.417169 0-16.369829-2.454912-31.596625-7.366781-45.680389-4.912893-14.075577-12.035104-26.278503-21.366633-36.593429-9.332553-10.314926-20.714787-18.419512-34.137495-24.314779-13.430894-5.894244-28.65769-8.841366-45.680389-8.841365-15.396665 0-29.716812 3.361561-42.97886 10.069333-13.262048 6.714935-23.661909 16.946974-31.190373 30.699186l-0.982374-0.982374c0.652869-7.528464 1.388627-15.633049 2.210341-24.313756 0.813528-8.67252 2.210341-17.437138 4.17509-26.278503 1.964748-8.842389 4.497431-17.268292 7.613398-25.297152 3.107781-8.019651 7.198959-15.141862 12.279674-21.366634 5.073552-6.216585 11.2973-11.213389 18.665105-14.981203 7.367805-3.76065 16.124236-5.64865 26.27748-5.64865 14.735609 0 26.440186 4.343935 35.119869 13.016455 8.67252 8.679683 13.668301 20.061918 14.981203 34.137495h55.996338c-0.661056-14.075577-3.929496-26.846438-9.824763-38.312584-5.894244-11.458983-13.507642-21.281699-22.839171-29.471219-9.332553-8.181333-20.061918-14.566764-32.172747-19.156292-12.119015-4.582365-25.049512-6.876618-38.803771-6.876617-24.237007 0-44.620243 5.403057-61.152778 16.20917-16.538675 10.806113-29.885658 24.804942-40.031739 41.996486-10.154267 17.191544-17.437138 36.271088-21.85782 57.223283-4.420683 20.959358-6.631024 41.750893-6.631024 62.380746 0 25.220405 1.795902 48.712445 5.403057 70.485331 3.597945 21.783119 10.06831 40.770566 19.400862 56.978712z m40.522925-93.078908c2.616594-8.511861 6.54609-15.9646 11.788488-22.350031 5.234211-6.384407 11.704576-11.45796 19.401885-15.226796 7.690146-3.76065 16.615423-5.64865 26.768667-5.648651 10.146081 0 18.98847 1.964748 26.524097 5.894244 7.528464 3.929496 13.831007 9.086959 18.910698 15.47239 5.072529 6.385431 8.841366 13.837146 11.297301 22.349007 2.454912 8.519024 3.683902 17.36039 3.683902 26.524097 0 9.171893-1.227967 18.09717-3.683902 26.76969-2.455935 8.679683-6.224772 16.293081-11.297301 22.839171-5.080715 6.554276-11.382235 11.873422-18.910698 15.9646-7.535627 4.098341-16.378016 6.139837-26.524097 6.139837-10.153244 0-19.079544-1.964748-26.768667-5.894243-7.697309-3.930519-14.167674-9.248641-19.401885-15.9646-5.242398-6.707772-9.171893-14.32117-11.788488-22.839172-2.62478-8.511861-3.929496-17.513886-3.929496-27.015283 0-9.492188 1.304715-18.495236 3.929496-27.01426zM838.026378 126.409015h-59.445904V79.237669c0-6.723122-5.64251-12.254092-12.603039-12.254092h-34.219359c-7.118118 0-12.602016 5.485945-12.602016 12.254092v47.171346h-415.973969V79.237669c0-6.723122-5.64251-12.254092-12.602016-12.254092h-34.220383c-7.118118 0-12.602016 5.485945-12.602016 12.254092v47.171346H184.311773c-65.738213 0-118.828362 53.168943-118.828363 118.755707v594.434478c0 65.448618 53.200666 118.755708 118.828363 118.755707h653.715628c65.738213 0 118.828362-53.168943 118.828363-118.755707V245.164722c-0.001023-65.448618-53.202713-118.755708-118.829386-118.755707z m59.402925 713.191208c0 32.806173-26.523073 59.331293-59.402925 59.331293H184.310749c-32.757055 0-59.402925-26.65201-59.402925-59.331293V364.107695h772.521479v475.492528z m0-534.916942H124.907824v-59.518559c0-32.806173 26.523073-59.331293 59.402925-59.331293h59.445904v47.171346c0 6.723122 5.64251 12.254092 12.602016 12.254091h34.220382c7.118118 0 12.602016-5.485945 12.602016-12.254091v-47.171346h415.972947v47.171346c0 6.723122 5.64251 12.254092 12.602015 12.254091h34.21936c7.119141 0 12.603039-5.485945 12.603039-12.254091v-47.171346h59.445904c32.757055 0 59.402925 26.65201 59.402924 59.331293v59.518559z" /></svg>