<?xml version="1.0" standalone="no"?><!DOCTYPE svg PUBLIC "-//W3C//DTD SVG 1.1//EN" "http://www.w3.org/Graphics/SVG/1.1/DTD/svg11.dtd"><svg class="icon" width="256px" height="256.00px" viewBox="0 0 1024 1024" version="1.1" xmlns="http://www.w3.org/2000/svg"><path fill="#d4237a" d="M398.917502 625.542986c-10.154267 8.842389-21.290909 17.115819-33.401738 24.804942a620.500133 620.500133 0 0 0-34.874275 23.822568c-23.254633 15.717983-41.590234 34.221406-55.012941 55.504129-13.430894 21.289885-20.307512 46.171576-20.629853 74.66042h234.787374v-50.101072h-167.494759c2.287089-7.528464 6.54609-14.650675 12.770862-21.366633 6.216585-6.707772 13.507642-13.178137 21.856797-19.401886 8.351202-6.216585 17.438161-12.440333 27.2619-18.665105 9.82374-6.216585 19.647479-12.770861 29.471219-19.647479a368.43935 368.43935 0 0 0 28.488844-22.103414c9.163707-7.860015 17.353227-16.454764 24.559349-25.787316 7.198959-9.332553 12.932544-19.563568 17.192568-30.699186 4.250814-11.128455 6.384407-23.576975 6.384407-37.33021 0-11.128455-1.803066-22.839171-5.402033-35.118845-3.607154-12.279674-9.746992-23.653723-18.419512-34.137495-8.679683-10.475586-20.061918-19.156292-34.137495-26.03291-14.083763-6.876618-31.604812-10.314926-52.557006-10.314926-19.325138 0-36.271088 3.361561-50.837852 10.069333-14.57495 6.714935-26.938536 15.963577-37.084617 27.752064-10.154267 11.788487-17.766642 25.787316-22.840194 41.995463-5.080715 16.210193-7.612375 33.816177-7.612375 52.803623h55.995315c0.322341-12.110829 1.550309-23.408129 3.683903-33.891901 2.12643-10.475586 5.403057-19.562545 9.824762-27.260877 4.420683-7.690146 10.314926-13.753235 17.682732-18.173918 7.366781-4.420683 16.615423-6.631024 27.752064-6.631025 12.110829 0 21.934568 2.048659 29.471218 6.139838 7.528464 4.098341 13.422707 9.17087 17.682731 15.226796 4.250814 6.063089 7.122211 12.609179 8.594749 19.647479 1.473561 7.045463 2.210341 13.676487 2.210341 19.892049-0.329505 13.430894-3.768837 25.297153-10.314926 35.612079-6.556323 10.313903-14.905478 19.892049-25.051559 28.733415zM524.169157 691.362041c0.322341 18.013259 3.108804 34.384112 8.350179 49.118697 5.234211 14.735609 12.847609 27.345812 22.840194 37.821397 9.984399 10.483772 22.425755 18.588357 37.329187 24.314779 14.897292 5.725398 32.334429 8.594749 52.311413 8.594748 16.369829 0 31.927153-2.454912 46.662763-7.367804 14.735609-4.91187 27.668153-11.865235 38.804794-20.874423 11.128455-9.003048 19.96982-19.96982 26.524097-32.909528 6.54609-12.932544 9.82374-27.583219 9.823739-43.961234 0-22.265096-5.486968-41.174772-16.454764-56.732096-10.974959-15.548114-26.278503-25.296129-45.925982-29.225625v-0.982374c16.700357-5.895267 28.980032-15.303544 36.839023-28.244274 7.858992-12.93152 11.788487-28.074406 11.788488-45.433772 0-15.057951-3.115967-28.40391-9.331529-40.031738-6.224772-11.619642-14.490016-21.197788-24.804943-28.734438-10.314926-7.528464-21.941732-13.262048-34.874275-17.191544-12.94073-3.929496-26.116821-5.894244-39.540551-5.894244-17.361413 0-32.909527 2.947122-46.663786 8.841365-13.752212 5.894244-25.464975 14.083763-35.119869 24.559349-9.662057 10.483772-17.275455 22.840194-22.839171 37.084617-5.571902 14.244422-8.679683 29.716812-9.332553 46.416146h55.995315c-0.329505-8.841366 0.652869-17.437138 2.947122-25.787317 2.287089-8.349155 5.810333-15.878642 10.56052-22.593577 4.743024-6.707772 10.722202-12.034081 17.928325-15.963577 7.198959-3.929496 15.717983-5.894244 25.541723-5.894244 15.717983 0 28.565593 4.420683 38.5592 13.262049 9.984399 8.841366 14.981203 20.629853 14.981203 35.365462 0 10.483772-2.210341 19.326161-6.630001 26.524097-4.420683 7.207146-10.238179 12.854772-17.437137 16.946974-7.207146 4.098341-15.395642 6.961552-24.559349 8.594748a129.287575 129.287575 0 0 1-27.506471 1.965772v41.750893c11.128455-0.322341 22.018479 0 32.663934 0.982373 10.637268 0.982374 20.215414 3.52222 28.734438 7.612375 8.510838 4.098341 15.387455 10.070356 20.62883 17.929348 5.234211 7.858992 7.860015 18.503423 7.860015 31.927154 0 19.647479-6.308683 34.797527-18.910699 45.433771-12.609179 10.645454-28.243251 15.9646-46.908356 15.9646-21.941732 0-38.396495-6.953366-49.364291-20.875446-10.974959-13.914918-16.132422-31.352055-15.47239-52.311413h-55.998385zM838.026378 126.409015h-59.445904V79.237669c0-6.723122-5.64251-12.254092-12.603039-12.254092h-34.219359c-7.118118 0-12.602016 5.485945-12.602016 12.254092v47.171346h-415.973969V79.237669c0-6.723122-5.64251-12.254092-12.602016-12.254092h-34.220383c-7.118118 0-12.602016 5.485945-12.602016 12.254092v47.171346H184.311773c-65.738213 0-118.828362 53.168943-118.828363 118.755707v594.434478c0 65.448618 53.200666 118.755708 118.828363 118.755707h653.715628c65.738213 0 118.828362-53.168943 118.828363-118.755707V245.164722c-0.001023-65.448618-53.202713-118.755708-118.829386-118.755707z m59.402925 713.191208c0 32.806173-26.523073 59.331293-59.402925 59.331293H184.310749c-32.757055 0-59.402925-26.65201-59.402925-59.331293V364.107695h772.521479v475.492528z m0-534.916942H124.907824v-59.518559c0-32.806173 26.523073-59.331293 59.402925-59.331293h59.445904v47.171346c0 6.723122 5.64251 12.254092 12.602016 12.254091h34.220382c7.118118 0 12.602016-5.485945 12.602016-12.254091v-47.171346h415.972947v47.171346c0 6.723122 5.64251 12.254092 12.602015 12.254091h34.21936c7.119141 0 12.603039-5.485945 12.603039-12.254091v-47.171346h59.445904c32.757055 0 59.402925 26.65201 59.402924 59.331293v59.518559z" /></svg>