<?xml version="1.0" standalone="no"?><!DOCTYPE svg PUBLIC "-//W3C//DTD SVG 1.1//EN" "http://www.w3.org/Graphics/SVG/1.1/DTD/svg11.dtd"><svg t="1553754905481" class="icon" style="" viewBox="0 0 1024 1024" version="1.1" xmlns="http://www.w3.org/2000/svg" p-id="1953" xmlns:xlink="http://www.w3.org/1999/xlink" width="256" height="256"><defs><style type="text/css"></style></defs><path d="M969.142857 219.428571q22.857143 0 38.857143 16t16 38.857143v694.857143q0 22.857143-16 38.857143t-38.857143 16H420.571429q-22.857143 0-38.857143-16t-16-38.857143v-164.571428H54.857143q-22.857143 0-38.857143-16t-16-38.857143V365.714286q0-22.857143 11.428571-50.285715t27.428572-43.428571L272 38.857143q16-16 43.428571-27.428572t50.285715-11.428571h237.714285q22.857143 0 38.857143 16t16 38.857143v187.428571q38.857143-22.857143 73.142857-22.857143h237.714286z m-310.857143 121.714286L487.428571 512h170.857143V341.142857zM292.571429 121.714286L121.714286 292.571429h170.857143V121.714286z m112 369.714285l180.571428-180.571428V73.142857H365.714286v237.714286q0 22.857143-16 38.857143t-38.857143 16H73.142857v365.714285h292.571429v-146.285714q0-22.857143 11.428571-50.285714t27.428572-43.428572z m546.285714 459.428572V292.571429h-219.428572v237.714285q0 22.857143-16 38.857143t-38.857142 16H438.857143v365.714286h512z" p-id="1954"></path></svg>