<?xml version="1.0" standalone="no"?><!DOCTYPE svg PUBLIC "-//W3C//DTD SVG 1.1//EN" "http://www.w3.org/Graphics/SVG/1.1/DTD/svg11.dtd"><svg t="1558579850302" class="icon" style="" viewBox="0 0 1024 1024" version="1.1" xmlns="http://www.w3.org/2000/svg" p-id="1473" xmlns:xlink="http://www.w3.org/1999/xlink" width="256" height="256"><defs><style type="text/css"></style></defs><path d="M492.051948 1024C257.139726 1024 73.142857 939.009039 73.142857 837.818185L73.142857 186.181819C73.142857 84.923609 257.139726 0 492.051948 0 726.958586 0 910.961042 84.923609 910.961042 186.181819L910.961042 837.818185C910.961042 939.009039 726.96417 1024 492.051948 1024L492.051948 1024ZM492.051948 46.545455C269.336719 46.545455 119.688312 124.43345 119.688312 186.181819L119.688312 837.818185C119.688312 899.594869 269.336719 977.454548 492.051948 977.454548 714.778147 977.454548 864.415583 899.594869 864.415583 837.818185L864.415583 186.181819C864.415583 124.43345 714.778147 46.545455 492.051948 46.545455L492.051948 46.545455ZM492.051948 837.818185C257.139726 837.818185 73.142857 745.389773 73.142857 605.090909 73.142857 615.100114 82.036363 605.090909 73.142857 605.090909 104.120063 605.090909 113.00938 615.100114 119.688312 605.090909 113.00938 707.522287 265.340848 793.266461 492.051948 791.272726 718.763049 793.266461 871.088933 707.522287 864.415583 605.090909 871.088933 615.100114 879.982438 605.090909 910.961042 605.090909 902.066139 605.090909 910.961042 615.100114 910.961042 605.090909 910.961042 745.389773 726.96417 837.818185 492.051948 837.818185L492.051948 837.818185ZM73.142857 372.363636C104.120063 372.363636 113.00938 382.379348 119.688312 372.363636 113.00938 474.79776 265.340848 560.550469 492.051948 558.545455 718.763049 560.550469 871.088933 474.79776 864.415583 372.363636 871.088933 382.379348 879.982438 372.363636 910.961042 372.363636 910.961042 512.666258 726.96417 605.090909 492.051948 605.090909 257.139726 605.090909 73.142857 512.672497 73.142857 372.363636ZM492.051948 372.363636C257.139726 372.363636 73.142857 279.935225 73.142857 139.636364 73.142857 149.566032 82.036363 139.636364 73.142857 139.636364 104.120063 139.636364 113.00938 149.578508 119.688312 139.636364 113.00938 242.036551 265.340848 327.818151 492.051948 325.818181 718.763049 327.818151 871.088933 242.036551 864.415583 139.636364 871.088933 149.566032 879.982438 139.636364 910.961042 139.636364 902.066139 139.636364 910.961042 149.578508 910.961042 139.636364 910.961042 279.941463 726.96417 372.363636 492.051948 372.363636Z" p-id="1474"></path></svg>