<?xml version="1.0" standalone="no"?><!DOCTYPE svg PUBLIC "-//W3C//DTD SVG 1.1//EN" "http://www.w3.org/Graphics/SVG/1.1/DTD/svg11.dtd"><svg t="1560759951285" class="icon" style="" viewBox="0 0 1024 1024" version="1.1" xmlns="http://www.w3.org/2000/svg" p-id="578" xmlns:xlink="http://www.w3.org/1999/xlink" width="200" height="200"><defs><style type="text/css"></style></defs><path d="M143.177933 830.556243c-21.450545 0-38.256302-17.528212-38.256302-39.908942L104.921631 336.558246l710.379163 0 0 68.924789 47.89073 0L863.191524 288.667515l-0.092098 0c0.008186-4.178159-0.989537-8.40953-3.28072-12.260232l-117.731378-149.655462c-4.319375-7.242961-12.135388-11.685133-20.572548-11.685133l-117.731378 0-159.635767 0-245.439992 0c-8.433066 0-16.251126 4.442172-20.569478 11.685133L60.406788 276.407284c-2.292206 3.850701-3.289929 8.082072-3.281743 12.260232l-0.094144 0 0 501.979786c0 49.231261 37.851073 87.799672 86.147032 87.799672l300.969703 0 63.620993 0 0-47.89073-63.620993 0L143.177933 830.556243zM476.073766 162.957419l127.708614 0 104.130615 0 102.034884 125.710097L476.073766 288.667515 476.073766 162.957419zM212.30943 162.957419l231.837182 0L444.146613 288.667515 110.273523 288.667515 212.30943 162.957419z" p-id="579"></path><path d="M739.195465 455.631178c-124.33375 0-225.485521 101.151771-225.485521 225.485521 0 124.332726 101.151771 225.485521 225.485521 225.485521s225.485521-101.152794 225.485521-225.485521C964.680986 556.781926 863.529215 455.631178 739.195465 455.631178zM739.195465 874.675066c-106.724697 0-193.558367-86.832647-193.558367-193.558367 0-106.724697 86.833671-193.558367 193.558367-193.558367 106.72572 0 193.558367 86.833671 193.558367 193.558367C932.753833 787.842419 845.921185 874.675066 739.195465 874.675066z" p-id="580"></path><path d="M751.878322 533.855774 719.951169 533.855774 719.951169 674.869415 719.951169 706.796568 751.878322 706.796568 860.962763 706.796568 860.962763 674.869415 751.878322 674.869415Z" p-id="581"></path></svg>