<?xml version="1.0" standalone="no"?><!DOCTYPE svg PUBLIC "-//W3C//DTD SVG 1.1//EN" "http://www.w3.org/Graphics/SVG/1.1/DTD/svg11.dtd"><svg t="1567509757698" class="icon" viewBox="0 0 1024 1024" version="1.1" xmlns="http://www.w3.org/2000/svg" p-id="44859" xmlns:xlink="http://www.w3.org/1999/xlink" width="200" height="200"><defs><style type="text/css"></style></defs><path d="M887.52128 431.8208v362.57792a60.06784 60.06784 0 0 1-60.04736 60.06784h-428.07296a60.0064 60.0064 0 0 1-51.99872-30.04416l-145.75616-252.43648a60.08832 60.08832 0 0 1 104.0384-60.08832l71.31136 123.51488V229.60128a60.06784 60.06784 0 1 1 120.13568 0V481.8944h8.99072v-54.0672a60.06784 60.06784 0 0 1 120.13568 0v54.08768h9.03168V427.8272a60.06784 60.06784 0 1 1 120.13568 0v54.08768h12.00128v-50.0736a60.02688 60.02688 0 1 1 120.09472-0.02048z" p-id="44860"></path></svg>