<?xml version="1.0" standalone="no"?><!DOCTYPE svg PUBLIC "-//W3C//DTD SVG 1.1//EN" "http://www.w3.org/Graphics/SVG/1.1/DTD/svg11.dtd"><svg t="1567509762921" class="icon" viewBox="0 0 1024 1024" version="1.1" xmlns="http://www.w3.org/2000/svg" p-id="44977" xmlns:xlink="http://www.w3.org/1999/xlink" width="200" height="200"><defs><style type="text/css"></style></defs><path d="M796.3648 652.24704a60.06784 60.06784 0 0 1-60.08832-60.06784V542.1056h-12.00128v54.08768a60.06784 60.06784 0 0 1-120.13568 0V542.1056h-9.03168v54.08768a60.06784 60.06784 0 1 1-120.13568 0V542.1056h-8.99072v252.29312a60.06784 60.06784 0 0 1-120.13568 0V388.58752l-71.31136 123.51488a60.08832 60.08832 0 0 1-104.0384-60.08832l145.75616-252.43648a60.0064 60.0064 0 0 1 51.99872-30.04416h428.07296a60.06784 60.06784 0 0 1 60.04736 60.06784v362.57792a60.0064 60.0064 0 0 1-60.0064 60.06784z" p-id="44978"></path></svg>