<?xml version="1.0" standalone="no"?><!DOCTYPE svg PUBLIC "-//W3C//DTD SVG 1.1//EN" "http://www.w3.org/Graphics/SVG/1.1/DTD/svg11.dtd"><svg t="1555401371391" class="icon" style="" viewBox="0 0 1024 1024" version="1.1" xmlns="http://www.w3.org/2000/svg" p-id="3606" xmlns:xlink="http://www.w3.org/1999/xlink" width="256" height="256"><defs><style type="text/css"></style></defs><path d="M812.865 355.19l-266.046-11.957V124.384h-0.493C540.71 60.144 486.791 9.75 421.093 9.75S301.477 60.144 295.86 124.384h-0.493V471.267c-40.639-36.953-102.373-44.069-151.227-13.503-55.695 34.846-74.677 106.165-45.366 163.604l-0.418 0.261 209.687 335.153a103.468 103.468 0 0 0 4.912 7.851c8.461 12.27 32.221 31.532 32.221 31.532 19.286 12.025 42.747 19.085 68.057 19.085h399.631c65.716 0 118.989-47.551 118.989-106.208V461.398c0.001-58.657-53.272-106.208-118.988-106.208zM295.367 824.108l-15.382-24.586-16.23-25.303a191.517 191.517 0 0 1-7.108-11.999l-95.469-152.593 0.218-0.136c-21.676-40.171-16.776-85.387 12.286-103.57 29.063-18.183 71.868-2.813 98.513 34.249l0.218-0.136 22.584 36.098c0.118 0.276 0.245 0.547 0.37 0.819a31.73 31.73 0 0 0 4.793 7.433 31.71 31.71 0 0 0 24.028 11.016c14.128 0 26.094-9.234 30.207-21.994l0.595-2.087V147.529h0.257c2.931-45.552 31.067-81.285 65.349-81.285 34.282 0 62.418 35.734 65.349 81.285h0.257v224.658c0 5.263 1.43 10.188 3.914 14.42 4.431 7.55 12.23 12.885 21.337 13.933a29.38 29.38 0 0 0 2.893 0.183l260.526 11.873c53.221 0 96.365 39.049 96.365 87.218v367.601c0 48.169-43.144 87.218-96.365 87.218H451.227c-0.147 0-0.293-0.005-0.439-0.005-0.233-0.001-0.466-0.005-0.699-0.008-0.747-0.008-1.493-0.023-2.236-0.046-0.301-0.009-0.602-0.021-0.903-0.032-0.453-0.018-0.906-0.038-1.358-0.062-41.17-1.986-81.93-24.504-107.05-63.666l-17.491-27.268" p-id="3607"></path><path d="M281.568 538.965l-0.209 0.131 21.918 34.567zM324.797 845.852l0.642 1.026 2.882 3.052-0.656-1.023zM450.204 937.427zM453.025 937.479c-0.224-0.001-0.448-0.005-0.672-0.008 0.224 0.003 0.448 0.007 0.672 0.008zM273.246 764.068l15.601 24.322-22.433-35.856a183.692 183.692 0 0 0 6.832 11.534z" p-id="3608"></path></svg>