<?xml version="1.0" standalone="no"?><!DOCTYPE svg PUBLIC "-//W3C//DTD SVG 1.1//EN" "http://www.w3.org/Graphics/SVG/1.1/DTD/svg11.dtd"><svg t="1555726597744" class="icon" style="" viewBox="0 0 1024 1024" version="1.1" xmlns="http://www.w3.org/2000/svg" p-id="2828" xmlns:xlink="http://www.w3.org/1999/xlink" width="256" height="256"><defs><style type="text/css"></style></defs><path d="M525.75744 612.5568l210.64192 0 0 52.6592-210.64192 0 0-52.6592Z" p-id="2829"></path><path d="M789.0432 59.63776 236.14464 59.63776c-57.26208 0-78.99136 19.75808-78.99136 77.84448l0 486.51264 0 49.7152 0 8.66816 0 9.15968 5.78048 4.60288 243.74784 258.688 33.07008 0c0.34304 0 8.54528 0 22.13888 0 76.75904 0 327.15264 0 327.15264 0 62.96576 0.60928 78.99648-34.85696 78.99648-77.84448L868.03968 137.48736C867.4304 85.73952 859.75552 59.63776 789.0432 59.63776zM394.112 857.25696 236.1344 691.54304l131.65056 0c21.8112 0 26.33216 1.39776 26.33216 22.89152L394.11712 857.25696zM815.3856 875.84768c0 21.49376-4.52096 26.32704-26.33728 26.32704L446.7712 902.17472l0-184.30464c0-42.98752-9.04192-78.98624-52.6592-78.98624L209.81248 638.88384 209.81248 138.62912c0-21.49888 4.51584-26.33216 26.33216-26.33216l552.9088 0c21.82144 0 26.33728 4.8384 26.33728 26.33216L815.39072 875.84768z" p-id="2830"></path><path d="M288.79872 249.05216l447.59552 0 0 65.1008-447.59552 0 0-65.1008Z" p-id="2831"></path><path d="M289.65376 353.15712l447.59552 0 0 65.1008-447.59552 0 0-65.1008Z" p-id="2832"></path><path d="M525.75744 476.51328l210.64192 0 0 62.8992-210.64192 0 0-62.8992Z" p-id="2833"></path></svg>