<?xml version="1.0" standalone="no"?><!DOCTYPE svg PUBLIC "-//W3C//DTD SVG 1.1//EN" "http://www.w3.org/Graphics/SVG/1.1/DTD/svg11.dtd"><svg t="1555727262304" class="icon" style="" viewBox="0 0 1024 1024" version="1.1" xmlns="http://www.w3.org/2000/svg" p-id="2047" xmlns:xlink="http://www.w3.org/1999/xlink" width="256" height="256"><defs><style type="text/css"></style></defs><path d="M128 128c-23.552 0-42.496 18.944-42.496 42.496v512c0 23.552 18.944 42.496 42.496 42.496h768c23.552 0 42.496-18.944 42.496-42.496v-512c0-23.552-18.944-42.496-42.496-42.496H128z m0-42.496h768c47.104 0 85.504 38.4 85.504 85.504v512c0 47.104-38.4 85.504-85.504 85.504H128c-47.104 0-85.504-38.4-85.504-85.504v-512c0-47.616 38.4-85.504 85.504-85.504z" p-id="2048"></path><path d="M846.336 487.424l-150.528-215.04c-2.56-4.096-4.608-6.656-7.168-9.728-4.608-4.608-9.216-6.656-14.336-6.656-5.12 0-10.24 2.048-14.336 6.656-3.584 4.096-3.584 5.12-7.168 9.728l-177.152 252.928-128-163.84c-8.192-10.24-19.968-10.752-28.16-5.632-4.608 3.072-6.656 5.632-9.728 9.728L167.936 573.44c-8.192 11.776-6.144 21.504 5.632 29.696 11.776 8.192 21.504 6.144 29.696-5.632L330.24 409.6l128.512 164.864c8.704 11.264 21.504 11.264 29.696 3.584 3.072-2.56 7.168-8.704 10.752-13.824l174.08-248.832 137.216 196.096c8.192 11.776 17.92 13.312 29.696 5.12 12.288-7.68 14.336-17.408 6.144-29.184zM149.504 896h725.504c14.336 0 21.504 7.168 21.504 21.504 0 14.336-7.168 21.504-21.504 21.504H149.504c-14.336 0-21.504-7.168-21.504-21.504 0-14.336 7.168-21.504 21.504-21.504z" p-id="2049"></path><path d="M362.496 725.504c14.336 0 21.504 7.168 21.504 21.504v170.496c0 14.336-7.168 21.504-21.504 21.504-14.336 0-21.504-7.168-21.504-21.504v-170.496c0.512-14.336 7.68-21.504 21.504-21.504zM661.504 725.504c14.336 0 21.504 7.168 21.504 21.504v170.496c0 14.336-7.168 21.504-21.504 21.504-14.336 0-21.504-7.168-21.504-21.504v-170.496c0-14.336 7.168-21.504 21.504-21.504z" p-id="2050"></path></svg>