<?xml version="1.0" standalone="no"?><!DOCTYPE svg PUBLIC "-//W3C//DTD SVG 1.1//EN" "http://www.w3.org/Graphics/SVG/1.1/DTD/svg11.dtd"><svg t="1553652216356" class="icon" style="" viewBox="0 0 1024 1024" version="1.1" xmlns="http://www.w3.org/2000/svg" p-id="1636" xmlns:xlink="http://www.w3.org/1999/xlink" width="256" height="256"><defs><style type="text/css"></style></defs><path d="M558.66 798.37L419.464 902.876a45.467 45.467 0 0 1-27.299 9.107c-25.11 0-45.466-20.356-45.466-45.467V692.278L118.135 577.875c-22.455-11.239-31.547-38.553-20.308-61.008a45.467 45.467 0 0 1 19.367-19.823l714.183-378.495c22.187-11.759 49.705-3.305 61.464 18.882a45.467 45.467 0 0 1 4.516 29.662l-126.032 672.88c-4.623 24.681-28.379 40.942-53.06 36.319a45.467 45.467 0 0 1-11.98-4.031L558.659 798.37z m-43.993-22.02L390.7 714.303v152.214c0 0.81 0.656 1.467 1.466 1.467 0.191 0 41.025-30.544 122.501-91.632z m293.328-595.613L137.799 535.921c-0.988 1.364-0.695 2.245 0.03 2.608l226.088 113.163 444.078-470.955z m37.472 24.397L405.002 672.256l160.783 80.477c0.277 0.131 0.552 0.269 0.824 0.412l159.37 79.769c1.182 0.28 1.949-0.245 2.098-1.042l117.39-626.738z" p-id="1637"></path></svg>