<?xml version="1.0" standalone="no"?><!DOCTYPE svg PUBLIC "-//W3C//DTD SVG 1.1//EN" "http://www.w3.org/Graphics/SVG/1.1/DTD/svg11.dtd"><svg t="1555726511016" class="icon" style="" viewBox="0 0 1024 1024" version="1.1" xmlns="http://www.w3.org/2000/svg" p-id="2023" xmlns:xlink="http://www.w3.org/1999/xlink" width="256" height="256"><defs><style type="text/css"></style></defs><path d="M496.64 428.544c-12.8 3.584-25.088 9.728-34.816 18.944L345.6 381.952c-13.312-7.68-30.72-2.56-38.4 10.752s-2.56 30.72 10.752 38.4L434.688 496.64c-2.048 11.776-1.536 24.064 1.536 35.84 12.288 45.056 58.88 72.192 103.936 59.904 45.056-12.288 72.192-58.88 59.904-103.936-11.264-45.056-58.368-72.192-103.424-59.904z m29.696 109.568c-15.36 4.096-31.232-5.12-35.328-20.48-2.048-7.168-1.024-14.848 2.56-20.992 3.584-6.656 9.728-12.288 17.92-14.336 15.36-4.096 31.232 5.12 35.328 20.48 3.584 15.36-5.632 31.232-20.48 35.328z" p-id="2024"></path><path d="M508.928 925.184c-227.84 0-412.672-185.344-412.672-412.672 0-227.84 185.344-412.672 412.672-412.672 227.84 0 412.672 185.344 412.672 412.672 0 227.328-185.344 412.672-412.672 412.672z m0-766.976c-195.072 0-353.792 158.72-353.792 353.792s158.72 353.792 353.792 353.792c195.072 0 353.792-158.72 353.792-353.792s-158.72-353.792-353.792-353.792z" p-id="2025"></path><path d="M253.44 642.56c7.168 12.288 3.072 28.16-9.216 34.816l-44.544 25.6c-12.288 7.168-28.16 3.072-34.816-9.216-7.168-12.288-3.072-28.16 9.216-34.816l44.544-25.6c12.288-7.168 28.16-3.072 34.816 9.216zM508.928 118.784c14.336 0 25.6 11.264 25.6 25.6v51.2c0 14.336-11.776 25.6-25.6 25.6s-25.6-11.264-25.6-25.6v-51.2c0-13.824 11.776-25.6 25.6-25.6zM855.552 693.248c-7.168 12.288-22.528 16.384-34.816 9.216l-44.544-25.6c-12.288-7.168-16.384-22.528-9.216-34.816 7.168-12.288 22.528-16.384 34.816-9.216l44.544 25.6c11.776 7.168 15.872 22.528 9.216 34.816zM766.464 380.928c-7.168-12.288-3.072-28.16 9.216-34.816l44.544-25.6c12.288-7.168 28.16-3.072 34.816 9.216 7.168 12.288 3.072 28.16-9.216 34.816l-44.544 25.6c-11.776 7.168-27.648 3.072-34.816-9.216zM164.864 330.24c7.168-12.288 22.528-16.384 34.816-9.216l44.544 25.6c12.288 7.168 16.384 22.528 9.216 34.816-7.168 12.288-22.528 16.384-34.816 9.216l-44.544-25.6c-11.776-7.168-16.384-22.528-9.216-34.816z" p-id="2026"></path></svg>