<?xml version="1.0" standalone="no"?><!DOCTYPE svg PUBLIC "-//W3C//DTD SVG 1.1//EN" "http://www.w3.org/Graphics/SVG/1.1/DTD/svg11.dtd"><svg t="1551074199096" class="icon" style="" viewBox="0 0 1024 1024" version="1.1" xmlns="http://www.w3.org/2000/svg" p-id="12721" xmlns:xlink="http://www.w3.org/1999/xlink" width="256" height="256"><defs><style type="text/css"></style></defs><path d="M512 938.666667C277.333333 938.666667 85.333333 746.666667 85.333333 512 85.333333 277.333333 277.333333 85.333333 512 85.333333s426.666667 192 426.666667 426.666667C938.666667 746.666667 746.666667 938.666667 512 938.666667zM512 128C300.8 128 128 300.8 128 512c0 211.2 172.8 384 384 384 211.2 0 384-172.8 384-384C896 300.8 723.2 128 512 128zM661.333333 678.4c-10.666667 6.4-23.466667 2.133333-29.866667-8.533333l-138.666667-160c-2.133333-6.4-4.266667-10.666667-2.133333-17.066667 0 0 0 0 0-2.133333L490.666667 256c0-12.8 8.533333-21.333333 21.333333-21.333333s21.333333 8.533333 21.333333 21.333333l0 234.666667c0 0 0 0 0 2.133333l134.4 155.733333C674.133333 659.2 669.866667 672 661.333333 678.4z" p-id="12722"></path></svg>