<?xml version="1.0" standalone="no"?><!DOCTYPE svg PUBLIC "-//W3C//DTD SVG 1.1//EN" "http://www.w3.org/Graphics/SVG/1.1/DTD/svg11.dtd"><svg t="1555726636799" class="icon" style="" viewBox="0 0 1024 1024" version="1.1" xmlns="http://www.w3.org/2000/svg" p-id="3299" xmlns:xlink="http://www.w3.org/1999/xlink" width="256" height="256"><defs><style type="text/css"></style></defs><path d="M512 924.5c-2.4 0-4.8-0.5-7-1.6L56.1 702.6c-5.6-2.7-9.1-8.4-9-14.6 0.1-6.2 3.8-11.8 9.4-14.3l168.3-76c8.1-3.6 17.5-0.1 21.2 8 3.6 8.1 0.1 17.5-8 21.2l-137.3 62L512 890.7l411.3-201.8-139.7-63.1c-8.1-3.6-11.6-13.1-8-21.2 3.6-8.1 13.1-11.6 21.2-8l170.6 77.1c5.7 2.6 9.3 8.1 9.4 14.3 0.1 6.2-3.4 11.9-9 14.6L519 922.9c-2.2 1.1-4.6 1.6-7 1.6z" fill="#333333" p-id="3300"></path><path d="M512 747c-2.4 0-4.8-0.5-7-1.6L56.1 525.1c-5.6-2.7-9.1-8.4-9-14.6 0.1-6.2 3.8-11.8 9.4-14.3l167.9-75.8c8.1-3.6 17.5-0.1 21.2 8 3.6 8.1 0 17.5-8 21.2l-137 61.9L512 713.1l411.3-201.8-137-61.8c-8.1-3.6-11.6-13.1-8-21.2 3.6-8 13.1-11.6 21.2-8l167.9 75.8c5.7 2.6 9.3 8.1 9.4 14.3 0.1 6.2-3.4 11.9-9 14.6L519 745.3c-2.2 1.1-4.6 1.7-7 1.7z" fill="#0F82E4" p-id="3301"></path><path d="M732.3 248.6c-2.2 0-4.4-0.5-6.6-1.4l-39-17.6c-8-3.6-11.6-13.1-8-21.2 3.6-8.1 13.1-11.6 21.2-8l39 17.6c8.1 3.6 11.6 13.1 8 21.2-2.7 5.8-8.5 9.4-14.6 9.4z" fill="#333333" p-id="3302"></path><path d="M512 572c-2.4 0-4.8-0.5-7-1.6L56.1 350.1c-5.6-2.7-9.1-8.4-9-14.6 0.1-6.2 3.8-11.8 9.4-14.3l448.8-202.7c4.2-1.9 9-1.9 13.2 0l134.7 60.8c8 3.6 11.6 13.1 8 21.2-3.7 8-13.1 11.6-21.2 8l-128-57.9-411.3 185.7L512 538.2l411.3-201.8-145.6-65.8c-8-3.6-11.6-13.1-8-21.2 3.6-8.1 13.1-11.6 21.2-8l176.6 79.7c5.7 2.5 9.3 8.1 9.4 14.3 0.1 6.2-3.4 11.9-9 14.6L519 570.4c-2.2 1-4.6 1.6-7 1.6z" fill="#333333" p-id="3303"></path></svg>