<?xml version="1.0" standalone="no"?><!DOCTYPE svg PUBLIC "-//W3C//DTD SVG 1.1//EN" "http://www.w3.org/Graphics/SVG/1.1/DTD/svg11.dtd"><svg t="1540281368674" class="icon" style="" viewBox="0 0 1025 1024" version="1.1" xmlns="http://www.w3.org/2000/svg" p-id="5369" xmlns:xlink="http://www.w3.org/1999/xlink" width="200.1953125" height="200"><defs><style type="text/css"></style></defs><path d="M768 160H640a128 128 0 0 0-247.93 0H256a64 64 0 0 0-64 64v672a64 64 0 0 0 64 64h512a64 64 0 0 0 64-64V224a64 64 0 0 0-64-64zM516 96a32 32 0 1 1-32 32 32 32 0 0 1 32-32z m252 800H256V224h512z" p-id="5370"></path><path d="M477.73 672l45.25-45.25L704 445.73l-45.25-45.26-181.02 181.02-90.51-90.51-45.26 45.26 90.51 90.51L477.73 672z" p-id="5371"></path></svg>