<?xml version="1.0" standalone="no"?><!DOCTYPE svg PUBLIC "-//W3C//DTD SVG 1.1//EN" "http://www.w3.org/Graphics/SVG/1.1/DTD/svg11.dtd"><svg t="1540281355252" class="icon" style="" viewBox="0 0 1024 1024" version="1.1" xmlns="http://www.w3.org/2000/svg" p-id="5221" xmlns:xlink="http://www.w3.org/1999/xlink" width="200" height="200"><defs><style type="text/css"></style></defs><path d="M640 281.6a51.2 51.2 0 0 0 0-102.4h-256a51.2 51.2 0 1 0 0 102.4h256z m-102.4 179.2h153.6a128 128 0 0 1 128 128v37.0176a25.6 25.6 0 1 1-51.2 0V588.8a76.8 76.8 0 0 0-76.8-76.8h-358.4A76.8 76.8 0 0 0 256 588.8v37.0176a25.6 25.6 0 1 1-51.2 0V588.8A128 128 0 0 1 332.8 460.8h153.6V394.8544a25.6 25.6 0 0 1 51.2 0V460.8z m-153.6-128a102.4 102.4 0 1 1 0-204.8h256a102.4 102.4 0 1 1 0 204.8h-256z m317.0304 512a25.6 25.6 0 1 1 0 51.2H691.2a102.4 102.4 0 1 1 0-204.8h153.6a102.4 102.4 0 1 1 0 204.8h-40.6016a25.6 25.6 0 0 1 0-51.2h40.6016a51.2 51.2 0 0 0 0-102.4h-153.6a51.2 51.2 0 0 0 0 102.4h9.8304zM179.2 691.2h153.6a102.4 102.4 0 1 1 0 204.8h-153.6a102.4 102.4 0 1 1 0-204.8z m0 51.2a51.2 51.2 0 0 0 0 102.4h153.6a51.2 51.2 0 0 0 0-102.4h-153.6z" fill="#9DA7B2" p-id="5222"></path></svg>