<?xml version="1.0" standalone="no"?><!DOCTYPE svg PUBLIC "-//W3C//DTD SVG 1.1//EN" "http://www.w3.org/Graphics/SVG/1.1/DTD/svg11.dtd"><svg t="1540281404613" class="icon" style="" viewBox="0 0 1024 1024" version="1.1" xmlns="http://www.w3.org/2000/svg" p-id="5486" xmlns:xlink="http://www.w3.org/1999/xlink" width="200" height="200"><defs><style type="text/css"></style></defs><path d="M932.992 484.992l-29.568 0c-13.312-194.944-169.536-351.168-364.48-364.48L538.944 91.008C539.008 76.096 526.912 64 512 64 497.088 64 484.992 76.096 484.992 91.008l0 29.568C290.048 133.888 133.824 290.048 120.512 484.992L91.008 484.992C76.096 484.992 64 497.088 64 512c0 14.912 12.096 27.008 27.008 27.008l29.568 0c13.312 194.944 169.536 351.104 364.48 364.416l0 29.568C484.992 947.904 497.088 960 512 960c14.912 0 27.008-12.096 27.008-27.008l0-29.568c194.944-13.312 351.104-169.536 364.48-364.416l29.568 0C947.904 539.008 960 526.912 960 512 960 497.088 947.904 484.992 932.992 484.992zM849.344 484.992 778.24 484.992c-12.672-126.016-113.216-226.56-239.232-239.232L539.008 174.656C704.128 187.776 836.224 319.872 849.344 484.992zM602.304 539.008l121.344 0c-12.224 96.192-88.512 172.48-184.704 184.704L538.944 602.304C539.008 587.392 526.912 575.36 512 575.36c-14.912 0-27.008 12.096-27.008 27.008l0 121.344c-96.192-12.224-172.48-88.512-184.704-184.704l121.344 0C436.544 539.008 448.64 526.912 448.64 512c0-14.912-12.096-27.008-27.008-27.008L300.288 484.992c12.224-96.192 88.512-172.48 184.704-184.704l0 121.344C484.992 436.544 497.088 448.64 512 448.64c14.912 0 27.008-12.096 27.008-27.008L539.008 300.288c96.192 12.224 172.48 88.512 184.704 184.704L602.304 484.992C587.392 484.992 575.36 497.088 575.36 512 575.36 526.912 587.392 539.008 602.304 539.008zM484.992 174.656 484.992 245.76C358.976 258.432 258.432 358.976 245.76 484.992L174.656 484.992C187.776 319.872 319.872 187.776 484.992 174.656zM174.656 539.008 245.76 539.008c12.672 126.016 113.216 226.56 239.232 239.232l0 71.104C319.872 836.224 187.776 704.128 174.656 539.008zM539.008 849.28 539.008 778.24c126.016-12.672 226.56-113.216 239.232-239.232l71.104 0C836.224 704.128 704.128 836.224 539.008 849.28z" p-id="5487"></path></svg>