<?xml version="1.0" standalone="no"?><!DOCTYPE svg PUBLIC "-//W3C//DTD SVG 1.1//EN" "http://www.w3.org/Graphics/SVG/1.1/DTD/svg11.dtd"><svg t="1547976852084" class="icon" style="" viewBox="0 0 1025 1024" version="1.1" xmlns="http://www.w3.org/2000/svg" p-id="5236" xmlns:xlink="http://www.w3.org/1999/xlink" width="256.25" height="256"><defs><style type="text/css"></style></defs><path d="M987.022222 457.955556L739.555556 361.244444V199.111111h-113.777778v119.466667l-292.977778-113.777778c-19.911111-8.533333-42.666667-5.688889-56.888889 8.533333l-256 227.555556c-22.755556 19.911111-25.6 56.888889-5.688889 79.644444 11.377778 14.222222 25.6 19.911111 42.666667 19.911111h28.444444v398.222223h170.666667V597.333333h170.666667v341.333334h512V568.888889h28.444444c22.755556 0 45.511111-14.222222 54.044445-36.977778 11.377778-28.444444-2.844444-62.577778-34.133334-73.955555zM824.888889 597.333333v85.333334h-113.777778v-85.333334h113.777778z m-284.444445 0h113.777778v85.333334h-113.777778v-85.333334z m0 227.555556v-85.333333h113.777778v85.333333h-113.777778z m284.444445 0h-113.777778v-85.333333h113.777778v85.333333z" fill="#1296db" p-id="5237"></path></svg>